<?xml version="1.0" encoding="UTF-8"?>
<svg xmlns="http://www.w3.org/2000/svg" xmlns:xlink="http://www.w3.org/1999/xlink" width="3000" height="2484" viewBox="0 0 3000 2484">
<path fill-rule="nonzero" fill="rgb(0%, 0%, 0%)" fill-opacity="1" d="M 1340.378906 2478.992188 C 1323.421875 2462.035156 1331.128906 2447.464844 1357.058594 2447.464844 C 1401.179688 2447.464844 1423.859375 2432.960938 1452.710938 2386.269531 C 1476.488281 2347.792969 1478.53125 2333.609375 1466.640625 2289.46875 C 1458.980469 2261.019531 1434.46875 2220.261719 1412.160156 2198.890625 C 1389.859375 2177.519531 1371.609375 2153.601562 1371.621094 2145.742188 C 1371.628906 2137.574219 1401.890625 2131.070312 1442.21875 2130.574219 C 1481.039062 2130.117188 1538.519531 2125.484375 1569.960938 2120.328125 C 1622.148438 2111.769531 1627.109375 2113.425781 1627.109375 2139.4375 C 1627.109375 2155.101562 1608.609375 2191.28125 1585.988281 2219.832031 C 1527.328125 2293.898438 1520.070312 2355.097656 1564.648438 2399.679688 C 1583.828125 2418.859375 1617.960938 2438.238281 1640.488281 2442.746094 C 1690.738281 2452.796875 1707.441406 2474.390625 1664.878906 2474.277344 C 1633.128906 2474.175781 1594.160156 2457.148438 1530.890625 2415.664062 C 1495.878906 2392.707031 1494.320312 2393.011719 1450.199219 2431.492188 C 1402.019531 2473.53125 1355.171875 2493.789062 1340.378906 2478.992188 Z M 13.394531 2312.183594 C 13.394531 2276.742188 40.933594 2265.53125 208.59375 2232.722656 C 414.019531 2192.527344 434.171875 2186.980469 440.167969 2169 C 448.511719 2143.964844 360.863281 2134.09375 204.015625 2142.40625 C 125.058594 2146.589844 48.359375 2151.886719 33.570312 2154.179688 C 3.210938 2158.878906 -8.347656 2119.25 6.332031 2060.765625 L 14.949219 2026.4375 L 235.847656 2034.742188 C 449.789062 2042.785156 457.21875 2042.171875 471.652344 2015.203125 C 480.066406 1999.476562 481.476562 1982.28125 474.886719 1975.695312 C 468.472656 1969.277344 360.5 1962.363281 234.949219 1960.328125 L 6.671875 1956.628906 L 3.160156 1909.5625 C -3.253906 1823.527344 -2.167969 1823.222656 249.652344 1840.789062 C 386.105469 1850.308594 480.097656 1851.664062 487.542969 1844.21875 C 494.3125 1837.453125 494.785156 1828.785156 488.597656 1824.964844 C 463.042969 1809.199219 306.34375 1787.15625 163.855469 1779.285156 L 11.742188 1770.882812 L 20.910156 1715.832031 C 46.714844 1560.878906 134.703125 1351.191406 236.007812 1203.21875 L 295.886719 1115.761719 L 309.222656 897.429688 C 330.839844 543.539062 388.007812 242.800781 462.375 91.75 C 500.464844 14.378906 507.769531 6.980469 543.507812 9.570312 C 565.109375 11.140625 604.441406 27.789062 630.917969 46.578125 C 722.808594 111.800781 891.695312 289.941406 1004.710938 440.871094 L 1118.339844 592.609375 L 1221.441406 582.070312 C 1354.71875 568.441406 1704.28125 568.488281 1810.941406 582.160156 L 1893.929688 592.789062 L 1986.71875 467.851562 C 2137.429688 264.929688 2424.929688 0 2494.429688 0 C 2573.25 0 2666.558594 327.820312 2709.441406 755.351562 C 2720.640625 867.109375 2729.820312 991.191406 2729.820312 1031.101562 C 2729.820312 1093.328125 2740.390625 1123.449219 2804.160156 1242.859375 C 2880.558594 1385.941406 2963.488281 1609.136719 2979.21875 1714.050781 C 2988.089844 1773.191406 2988 1773.359375 2943.011719 1780.375 C 2918.210938 1784.242188 2831.339844 1791.121094 2749.980469 1795.65625 C 2575.929688 1805.363281 2511.980469 1816.734375 2504.449219 1839.308594 C 2497.378906 1860.539062 2613.570312 1861.074219 2821.480469 1840.773438 C 2993.988281 1823.925781 2998.199219 1825.609375 2998.558594 1911.398438 L 2998.769531 1960.300781 L 2763.871094 1965.421875 C 2603.550781 1968.921875 2523.78125 1975.738281 2512.621094 1986.894531 C 2503.628906 1995.886719 2500.921875 2007.886719 2506.601562 2013.554688 C 2512.28125 2019.226562 2623.820312 2023.867188 2754.480469 2023.867188 L 2992.039062 2023.867188 L 2996.019531 2084.378906 L 3000 2144.894531 L 2769.351562 2140.628906 C 2583.191406 2137.1875 2539.808594 2139.78125 2544.449219 2154.078125 C 2550.859375 2173.8125 2604.140625 2191.183594 2763.429688 2225.464844 C 2896.128906 2254.023438 2989.929688 2293.023438 2981.46875 2316.125 C 2978.039062 2325.496094 2969.921875 2332.148438 2963.429688 2330.910156 C 2871.480469 2313.359375 2639.308594 2299.542969 2436.328125 2299.542969 C 2296.519531 2299.542969 2149.558594 2293.367188 2109.75 2285.816406 C 2010.230469 2266.941406 1890.648438 2208.144531 1798.699219 2132.867188 C 1756.25 2098.109375 1700.269531 2060.796875 1674.308594 2049.949219 C 1648.351562 2039.105469 1627.109375 2027.507812 1627.109375 2024.183594 C 1627.109375 2020.859375 1639.011719 1987.953125 1653.550781 1951.0625 C 1668.089844 1914.171875 1704.769531 1800.480469 1735.050781 1698.421875 C 1765.328125 1596.359375 1817.808594 1455.429688 1851.679688 1385.25 C 1903.210938 1278.441406 1932.601562 1238 2032 1137.179688 C 2097.308594 1070.929688 2149.25 1015.21875 2147.429688 1013.398438 C 2145.609375 1011.570312 2117.050781 1016.140625 2083.96875 1023.558594 C 1940.921875 1055.589844 1761.289062 1199.75 1695.769531 1335.109375 C 1680.171875 1367.320312 1656.898438 1444.691406 1644.050781 1507.054688 L 1620.679688 1620.4375 L 1609.800781 1512.855469 C 1560.269531 1022.808594 1503.941406 631.199219 1488.910156 672.378906 C 1463.828125 741.128906 1426.128906 1201.660156 1425.699219 1444.5 C 1425.550781 1540.03125 1421 1613.808594 1415.640625 1608.445312 C 1410.28125 1603.078125 1398.640625 1563.152344 1389.78125 1519.71875 C 1349.199219 1320.789062 1218.570312 1149.878906 1045.910156 1069.820312 C 946.34375 1023.648438 840.320312 996.410156 849.097656 1019.25 C 851.722656 1026.078125 892.144531 1063.378906 938.921875 1102.128906 C 1033.511719 1180.5 1125.558594 1297.808594 1185.5 1416.390625 C 1220.578125 1485.789062 1398.5 1989.640625 1398.5 2019.582031 C 1398.5 2026.003906 1382.851562 2037.207031 1363.710938 2044.480469 C 1344.589844 2051.753906 1294.660156 2083.746094 1252.769531 2115.574219 C 1039.578125 2277.5625 1003.648438 2287.132812 558.023438 2300.644531 C 358.324219 2306.699219 179.808594 2314.683594 161.316406 2318.382812 C 142.828125 2322.082031 101.980469 2327.859375 70.546875 2331.21875 C 21.511719 2336.460938 13.394531 2333.753906 13.394531 2312.183594 Z M 987.851562 1904.554688 C 1059.429688 1832.980469 1055.808594 1711.820312 980.199219 1648.195312 C 927.441406 1603.804688 901.136719 1604.722656 855.308594 1652.554688 C 782.949219 1728.085938 783.597656 1851.882812 856.65625 1909.351562 C 902.351562 1945.296875 948.808594 1943.597656 987.851562 1904.558594 Z M 2160.339844 1889.078125 C 2229.339844 1813.375 2207.28125 1687.222656 2117.558594 1644.4375 C 2078.21875 1625.679688 2066.351562 1625.042969 2038.089844 1640.167969 C 1966.46875 1678.496094 1941.910156 1801.410156 1991.859375 1871.550781 C 2042.351562 1942.46875 2105.671875 1949.054688 2160.339844 1889.078125 Z M 722.757812 761.328125 C 805.964844 719.679688 874.042969 680.539062 874.042969 674.351562 C 874.042969 626 609.351562 309.289062 568.9375 309.289062 C 538.890625 309.289062 497.832031 582.71875 497.617188 784.238281 L 497.515625 889.371094 L 534.496094 863.210938 C 554.835938 848.828125 639.558594 802.980469 722.765625 761.328125 Z M 2523.828125 857.28125 C 2529.878906 734.371094 2460.378906 309.289062 2434.230469 309.289062 C 2399.921875 309.289062 2138.121094 636.179688 2138.121094 679.019531 C 2138.121094 687.441406 2169.890625 707.5 2208.71875 723.609375 C 2247.550781 739.710938 2330.761719 783.050781 2393.621094 819.910156 C 2456.488281 856.769531 2511.171875 887.058594 2515.128906 887.230469 C 2519.101562 887.410156 2523.011719 873.929688 2523.828125 857.28125 Z M 2523.828125 857.28125 "/>
</svg>
