<?xml version="1.0" encoding="UTF-8"?>
<svg xmlns="http://www.w3.org/2000/svg" xmlns:xlink="http://www.w3.org/1999/xlink" width="4000" height="4000" viewBox="0 0 4000 4000">
<rect x="-400" y="-400" width="4800" height="4800" fill="rgb(100%, 100%, 100%)" fill-opacity="1"/>
<path fill="none" stroke-width="122.3" stroke-linecap="round" stroke-linejoin="round" stroke="rgb(50.584412%, 36.888123%, 25.097656%)" stroke-opacity="1" stroke-miterlimit="10" d="M 20128.085938 30596.015625 C 19710 30230.3125 18430.78125 24160.507812 18371.992188 19693.085938 C 18305.117188 14605.585938 20228.398438 8284.414062 20228.398438 8284.414062 C 20228.398438 8284.414062 21499.492188 14012.890625 21549.6875 19841.289062 C 21578.59375 23201.40625 21282.109375 26180.117188 20128.085938 30596.015625 Z M 29035.117188 19396.914062 C 28733.710938 19725.898438 23730.78125 20732.1875 20048.59375 20778.398438 C 15855.390625 20831.015625 10645.390625 19318.007812 10645.390625 19318.007812 C 10645.390625 19318.007812 15366.914062 18318.085938 20170.78125 18278.59375 C 22940.195312 18255.898438 25395.390625 18489.101562 29035.117188 19396.914062 Z M 26436.40625 25836.210938 C 25986.992188 25858.90625 21726.71875 23087.890625 19089.804688 20557.382812 C 16086.914062 17675.585938 13489.609375 12978.984375 13489.609375 12978.984375 C 13489.609375 12978.984375 17546.40625 15558.59375 20971.71875 18874.804688 C 22946.289062 20786.601562 24514.804688 22660.585938 26436.40625 25836.210938 Z M 13432.890625 26022.109375 C 13409.804688 25579.6875 16224.492188 21385.585938 18795 18789.6875 C 21722.304688 15833.515625 26493.085938 13276.601562 26493.085938 13276.601562 C 26493.085938 13276.601562 23872.695312 17270.3125 20504.21875 20642.304688 C 18562.1875 22586.289062 16658.59375 24130.390625 13432.890625 26022.109375 Z M 19840.195312 30850.117188 C 26236.914062 30850.117188 31430.195312 25737.5 31430.195312 19440.195312 C 31430.195312 13142.890625 26236.914062 8030.351562 19840.195312 8030.351562 C 13443.515625 8030.351562 8250.195312 13142.890625 8250.195312 19440.195312 C 8250.195312 25737.5 13443.515625 30850.117188 19840.195312 30850.117188 Z M 22544.882812 37468.789062 C 22220.3125 35410.703125 21513.710938 31988.398438 21513.710938 31633.90625 M 24155.117188 34258.203125 C 23906.484375 33517.304688 23462.617188 31958.203125 23251.992188 31461.40625 M 24723.710938 30930.78125 C 25073.90625 31630.703125 25588.710938 32664.296875 25950.78125 33377.304688 C 26628.398438 34711.289062 26683.710938 34761.71875 27347.8125 36069.296875 M 26452.1875 30080.78125 C 26881.210938 30586.601562 27784.296875 31821.484375 28265.78125 32661.210938 M 28092.304688 28920.78125 C 29639.882812 30444.296875 30562.304688 31812.109375 32076.992188 33303.28125 M 29414.6875 27827.304688 C 29532.8125 27979.609375 31814.609375 29567.890625 31862.695312 29567.890625 M 30311.289062 26150.585938 C 31463.59375 26668.085938 34490.78125 28528.59375 35678.203125 28920.78125 M 31207.8125 24662.304688 C 32266.40625 24972.304688 33069.21875 25367.382812 34102.1875 25808.90625 M 31862.695312 23015 C 32964.492188 23212.1875 36740.3125 23681.992188 37068.085938 23811.09375 M 32076.992188 21086.71875 C 32902.695312 21176.992188 34121.40625 21083.398438 34960.78125 21083.398438 M 32316.601562 19105.507812 C 34005.78125 18962.695312 35484.21875 18873.90625 36982.304688 18628.085938 M 32316.601562 17346.992188 C 32985.585938 17258.085938 34079.882812 17031.796875 34717.5 17031.796875 M 31862.695312 15382.304688 C 32428.398438 15196.601562 35912.304688 14566.71875 36380.585938 14435 M 31207.8125 13941.09375 C 31294.804688 13966.71875 33212.617188 13310.507812 33339.804688 13310.507812 M 30627.382812 12492.1875 C 31130.195312 12350.78125 34206.40625 10648.203125 34717.5 10428.398438 M 29895.585938 11106.484375 C 30071.289062 10933.59375 31652.5 10086.71875 31862.695312 10086.71875 M 28787.695312 10086.71875 C 29784.492188 9210 31316.210938 8112.96875 32316.601562 7128.085938 M 27541.992188 9100.390625 C 27846.289062 8800.898438 28673.085938 7590.820312 28948.710938 7319.492188 M 26128.59375 8458.4375 C 26346.015625 7964.492188 27917.1875 4683.007812 28265.78125 4144.726562 M 24439.414062 7609.257812 C 24640.117188 7016.523438 25122.1875 6145.898438 25322.109375 5684.882812 M 22544.882812 7246.523438 C 22658.28125 6948.789062 23302.1875 4243.515625 23569.6875 3074.53125 M 20533.710938 7030.195312 C 20533.710938 6888.671875 20682.304688 4571.367188 20682.304688 4428.046875 M 18805.195312 7030.195312 C 18749.882812 6785.234375 18067.382812 3288.59375 18017.1875 2531.210938 M 17282.382812 7246.523438 C 17214.492188 7042.460938 16645.78125 5363.125 16545.507812 5050.273438 M 15926.71875 7609.257812 C 15709.296875 7174.21875 15203.984375 6191.445312 14973.398438 5684.882812 C 14789.414062 5280.78125 14220.78125 4062.421875 14072.109375 3700.195312 M 14404.804688 8030.351562 C 14321.210938 7701.054688 13836.210938 6927.226562 13736.914062 6676.171875 M 13053.90625 8722.109375 C 12782.5 8260.859375 10742.109375 5840.585938 10263.007812 5050.273438 M 11721.40625 9524.335938 C 11126.796875 8935.898438 10608.28125 8507.8125 10263.007812 8030.351562 M 10706.289062 10545.507812 C 10340.78125 10170.703125 6977.578125 7483.085938 6728.28125 7319.492188 M 9738.671875 11833.59375 C 9387.460938 11619.609375 8314.335938 10870 7883.046875 10545.507812 M 8835.546875 13310.507812 C 8383.945312 13043.710938 5172.929688 11273.90625 4470.507812 10977.5 M 8321.953125 14873.515625 C 7614.6875 14599.6875 6818.90625 14454.21875 6315.195312 14206.289062 M 7925.820312 16159.101562 C 6968.632812 16048.203125 4186.171875 15406.40625 3099.101562 15208.90625 M 7637.304688 17501.71875 C 7241.40625 17440.703125 6159.648438 17415.117188 5775 17402.382812 M 7836.015625 18892.617188 C 7750.234375 18925.117188 3254.648438 18679.804688 2931.875 18628.085938 M 7715.039062 20181.09375 C 7449.257812 20200.78125 6006.445312 20095.78125 5875.351562 20138.789062 M 7925.820312 21483.984375 C 7224.570312 21590.703125 6477.421875 21564.101562 5775 21662.890625 C 5394.804688 21716.40625 3818.242188 21794.609375 3232.890625 21811.09375 M 7925.820312 23234.414062 C 7180.820312 23429.882812 6790.15625 23553.28125 6025.859375 23709.492188 M 8716.757812 24659.609375 C 8588.085938 24587.382812 4871.875 26322.382812 4207.5 26662.382812 M 9337.304688 26150.585938 C 9019.53125 26338.789062 7982.617188 27013.90625 7637.304688 27244.414062 M 10263.007812 27453.789062 C 9588.164062 27952.304688 6874.414062 30471.992188 6315.195312 30930.78125 M 11193.710938 28512.109375 C 11009.6875 28742.617188 10284.804688 29465 10039.6875 29779.882812 M 12431.289062 29567.890625 C 12013.203125 29944.492188 9989.53125 33188.007812 9337.304688 33920.703125 M 13836.210938 30405.507812 C 13518.398438 30932.382812 13172.617188 31576.484375 12810.3125 32051.992188 M 13226.09375 35481.289062 C 13311.289062 35145.703125 14903.710938 31252.617188 15090.507812 30930.78125 M 16227.695312 33616.09375 C 16314.21875 33377.617188 16746.601562 31917.5 16881.40625 31541.015625 M 18017.1875 36596.210938 C 18151.015625 35871.71875 18335 34373.515625 18496.796875 33616.09375 C 18645.585938 32919.296875 18769.804688 32496.484375 18805.195312 31633.90625 M 30400.3125 17346.992188 C 30451.914062 17198.515625 30209.296875 16377.8125 30092.1875 16159.101562 M 29895.585938 15587.5 C 29802.890625 15399.101562 29607.1875 14830.195312 29414.6875 14584.21875 M 29072.109375 13825.78125 C 28871.40625 13496.601562 28652.8125 13233.90625 28453.28125 12953.203125 M 27968.28125 12327.5 C 27767.617188 12031.210938 27440.78125 11721.289062 27220.390625 11504.414062 M 25288.59375 10207.890625 C 25625.78125 10362.304688 26066.71875 10668.515625 26393.398438 10829.296875 M 23452.695312 9421.132812 C 23904.21875 9495.703125 24459.492188 9751.210938 24723.710938 9907.304688 M 21329.6875 8792.265625 C 21681.71875 8802.382812 22114.6875 8952.34375 22544.882812 9100.390625 M 22281.992188 24179.6875 C 22207.304688 24189.492188 22039.6875 24310.703125 22011.289062 24394.414062 C 21869.296875 24813.90625 22365.117188 25038.59375 22599.6875 24758.203125 C 22833.90625 24478.28125 22516.09375 24148.984375 22281.992188 24179.6875 Z M 22800.390625 25449.6875 C 22284.101562 25680.78125 22557.304688 26589.296875 23202.109375 26337.382812 C 23619.882812 26174.21875 23578.28125 25746.71875 23330.390625 25532.109375 C 23175.585938 25398.085938 22984.414062 25367.382812 22800.390625 25449.6875 Z M 24071.484375 27030.3125 C 23837.304688 26832.695312 23402.5 26915.117188 23247.382812 27101.914062 C 22974.414062 27430.585938 23108.085938 27819.21875 23372.109375 27996.992188 C 23555.78125 28120.78125 23817.5 28161.992188 24005.195312 28051.09375 C 24336.601562 27855.390625 24468.398438 27365.195312 24071.484375 27030.3125 Z M 24490.703125 21166.484375 C 24204.882812 21486.601562 24715.507812 22011.289062 25043.59375 21652.8125 C 25426.09375 21234.804688 24723.710938 20905.507812 24490.703125 21166.484375 Z M 26212.1875 21662.890625 C 25682.109375 21843.59375 25835.585938 22562.890625 26424.296875 22504.804688 C 26613.59375 22486.09375 26881.210938 22255.585938 26786.015625 21959.492188 C 26714.609375 21737.617188 26456.015625 21579.804688 26212.1875 21662.890625 Z M 27734.101562 22272.109375 C 27531.796875 22360 27332.695312 22634.296875 27347.8125 22848.398438 C 27377.8125 23272.890625 27983.007812 23587.109375 28361.289062 23255.390625 C 28663.789062 22990.195312 28633.007812 22664.882812 28453.28125 22451.015625 C 28290.195312 22256.914062 28004.609375 22154.609375 27734.101562 22272.109375 Z M 30672.5 19506.09375 C 30711.09375 19143.90625 30711.09375 18518.203125 30627.382812 18156.015625 M 30400.3125 21662.890625 C 30546.289062 21482.695312 30645.898438 20731.796875 30672.5 20496.210938 M 29827.304688 23709.492188 C 29965.507812 23578.515625 30209.296875 22863.710938 30209.296875 22673.28125 M 28907.382812 25345 C 29021.914062 25202.8125 29450.3125 24709.296875 29518.085938 24475.585938 M 27734.101562 26853.710938 C 28000.117188 26701.015625 28227.382812 26298.90625 28352.890625 26150.585938 M 26393.398438 28133.398438 C 26646.992188 27902.890625 26999.101562 27609.414062 27220.390625 27391.484375 M 24907.695312 28920.78125 C 25175.3125 28874.296875 25527.382812 28601.601562 25722.617188 28537.617188 M 23330.390625 29567.890625 C 23561.09375 29499.804688 24004.6875 29324.296875 24212.5 29196.40625 M 21513.710938 30080.78125 C 21830.390625 30043.28125 22355.117188 29956.015625 22633.710938 29838.398438 M 18066.289062 29944.492188 C 18401.914062 30076.210938 18769.804688 30142.109375 19137.8125 30191.484375 M 16276.914062 29473.515625 C 16495.3125 29516.40625 16999.101562 29656.40625 17185.703125 29697.1875 M 14655.585938 28775.585938 C 14910 28928.28125 15363.59375 29096.40625 15592.1875 29196.40625 M 13284.296875 27886.484375 C 13476.210938 28043.984375 13747.304688 28287.304688 13969.882812 28396.914062 M 12013.203125 26853.710938 C 12180.390625 27063.28125 12421.289062 27243.28125 12631.992188 27391.484375 M 11009.6875 25532.109375 C 11126.796875 25746.09375 11393.90625 26154.296875 11544.882812 26289.414062 M 10508.007812 24758.203125 C 10375.585938 24562.695312 10068.710938 24039.21875 9984.492188 23818.085938 M 9655.078125 23128.203125 C 9554.726562 23029.492188 9343.75 22267.1875 9321.09375 22170.507812 M 9094.921875 21317.1875 C 9103.710938 21076.71875 9002.8125 20675 9041.171875 20411.601562 M 9052.96875 19506.09375 C 9019.53125 19193.203125 9064.804688 18919.414062 9094.921875 18623.007812 M 9253.671875 17612.695312 C 9236.953125 17316.289062 9391.367188 16942.617188 9471.09375 16707.109375 M 9905.9375 15587.5 C 9971.796875 15267.304688 10197.617188 14862.8125 10386.210938 14584.21875 M 10909.414062 13562.382812 C 11059.882812 13282.5 11499.6875 12807.109375 11643.59375 12618.28125 M 12431.289062 11981.796875 C 12420.117188 11929.492188 13171.015625 11264.296875 13221.40625 11210.585938 M 13836.210938 10545.507812 C 14070.3125 10302.382812 14857.8125 9926.09375 15090.507812 9805.507812 M 15978.710938 9421.132812 C 16313.203125 9161.992188 16746.210938 9067.226562 17185.703125 8935.898438 M 18066.289062 8722.109375 C 18333.90625 8635.234375 19037.382812 8573.4375 19438.789062 8573.671875 M 20112.109375 34603.984375 C 20141.210938 33369.101562 20206.71875 32544.414062 20206.71875 31541.015625 M 24556.484375 17402.382812 C 24416.015625 17322.617188 24138.398438 17398.59375 24071.484375 17593.789062 C 23943.007812 17968.59375 24589.882812 18156.015625 24723.710938 17777.304688 C 24767.5 17653.515625 24723.710938 17497.382812 24556.484375 17402.382812 Z M 25660.3125 16488.90625 C 25398.007812 16682.5 25438.203125 17046.914062 25639.414062 17245.703125 C 25810.78125 17415.117188 26109.6875 17462.1875 26329.296875 17266.914062 C 26847.695312 16805.898438 26145.3125 16130.898438 25660.3125 16488.90625 Z M 28265.78125 15493.59375 C 27952.617188 15193.710938 27282.617188 15390 27166.40625 15851.71875 C 27017.617188 16443.90625 27698.984375 16835.507812 28168.90625 16542.5 C 28670.703125 16229.609375 28570.3125 15785.117188 28265.78125 15493.59375 Z M 21769.414062 14796.484375 C 21488.203125 14933.28125 21671.796875 15450.898438 21986.210938 15350.507812 C 22532.8125 15175.898438 22164.882812 14604.101562 21769.414062 14796.484375 Z M 22377.382812 13085.898438 C 21812.382812 13625.117188 22659.414062 14360.703125 23090.898438 13851.015625 C 23566.210938 13289.492188 22817.109375 12666.289062 22377.382812 13085.898438 Z M 23097.1875 11106.484375 C 22566.289062 11636.09375 23382.382812 12643.710938 24054.6875 11981.796875 C 24690.195312 11356.210938 23630.78125 10574.296875 23097.1875 11106.484375 Z M 17720.78125 15027.695312 C 17431.914062 15131.289062 17532.1875 15636.914062 17900.195312 15554.609375 C 18332.109375 15457.890625 18134.296875 14879.609375 17720.78125 15027.695312 Z M 17247.890625 13310.507812 C 17107.304688 13305.898438 16913.398438 13364.804688 16796.40625 13463.59375 C 16468.984375 13739.804688 16796.40625 14319.804688 17231.210938 14253.90625 C 17635.78125 14192.617188 17771.09375 13818.710938 17649.296875 13562.382812 C 17571.601562 13398.90625 17398.398438 13315.390625 17247.890625 13310.507812 Z M 15804.492188 11372.617188 C 15508.59375 11784.21875 15691.601562 12153.515625 16039.882812 12327.5 C 16328.007812 12471.40625 16731.40625 12377.890625 16881.40625 12080.585938 C 17097.382812 11652.5 16896.71875 11306.796875 16612.382812 11210.585938 C 16296.40625 11103.789062 15922.617188 11208.28125 15804.492188 11372.617188 Z M 15300.703125 17464.492188 C 14856.289062 17629.101562 15188.90625 18293.203125 15596.914062 18116.796875 C 16077.1875 17908.984375 15707.617188 17313.789062 15300.703125 17464.492188 Z M 13350.117188 16546.484375 C 13080.195312 16632.1875 12933.59375 16975.703125 13033.984375 17235.390625 C 13167.1875 17579.6875 13509.414062 17648.789062 13736.914062 17563.28125 C 14086.992188 17431.601562 14133.515625 17118.90625 14050.898438 16879.609375 C 13962.617188 16623.789062 13705 16433.789062 13350.117188 16546.484375 Z M 11009.6875 15669.882812 C 10641.796875 15851.015625 10481.796875 16554.882812 11193.710938 16855.3125 C 11427.8125 16954.101562 11732.890625 16877.304688 11896.09375 16707.109375 C 12464.804688 16114.414062 11725.703125 15317.382812 11009.6875 15669.882812 Z M 15408.203125 20970.3125 C 15040.3125 21119.609375 15289.609375 21813.203125 15751.210938 21527.5 C 16144.101562 21284.21875 15818.710938 20803.710938 15408.203125 20970.3125 Z M 13736.914062 21483.984375 C 13133.710938 21599.101562 13321.992188 22596.40625 13984.6875 22439.21875 C 14689.101562 22272.109375 14438.203125 21350.117188 13736.914062 21483.984375 Z M 11521.40625 22181.210938 C 10508.007812 22601.40625 11444.609375 23819.804688 12183.789062 23300.3125 C 12781.71875 22880.195312 12192.1875 21903.085938 11521.40625 22181.210938 Z M 17900.195312 23709.492188 C 17449.6875 23784.492188 17482.109375 24396.015625 18002.1875 24330.117188 C 18488.710938 24268.59375 18333.710938 23637.1875 17900.195312 23709.492188 Z M 17282.382812 25087.5 C 16764.296875 25248.789062 16950.195312 26149.492188 17553.085938 25993.085938 C 18251.40625 25811.992188 17916.914062 24889.882812 17282.382812 25087.5 Z M 16395 27145.585938 C 16065.507812 27558.398438 16277.890625 28034.6875 16771.09375 28106.40625 C 16837.1875 28116.015625 16985.585938 28116.484375 17049.21875 28091.992188 C 17582.382812 27886.484375 17649.296875 27227.890625 17102.304688 27030.3125 C 16991.40625 26990.3125 16578.90625 26915.117188 16395 27145.585938 Z M 16395 27145.585938 " transform="matrix(0.1, 0, 0, -0.1, 0, 4000)"/>
</svg>
