<?xml version="1.0" encoding="UTF-8"?>
<svg xmlns="http://www.w3.org/2000/svg" xmlns:xlink="http://www.w3.org/1999/xlink" width="4000" height="4000" viewBox="0 0 4000 4000">
<rect x="-400" y="-400" width="4800" height="4800" fill="rgb(100%, 100%, 100%)" fill-opacity="1"/>
<path fill="none" stroke-width="131.89" stroke-linecap="round" stroke-linejoin="round" stroke="rgb(50.584412%, 36.888123%, 25.097656%)" stroke-opacity="1" stroke-miterlimit="10" d="M 12293.984375 35842.890625 C 13908.085938 34870 13696.40625 32834.414062 14873.90625 30926.796875 C 15520.703125 29879.101562 16771.914062 29058.398438 17381.015625 28174.296875 C 17648.710938 27785.78125 18024.804688 27333.90625 18253.398438 26891.484375 C 18438.710938 26532.8125 18587.1875 25898.28125 18776.992188 25537.109375 C 19173.90625 24781.71875 19372.304688 24320.78125 20459.804688 23693.515625 C 20784.6875 23506.09375 21515.195312 23321.796875 21793.515625 23591.09375 C 21886.601562 23681.09375 21455.703125 24078.984375 21409.804688 24128.789062 C 20549.882812 25063.398438 20133.59375 26075.507812 19875.117188 27111.71875 C 19658.203125 27981.289062 19545.703125 29242.5 19261.40625 30414.804688 C 19060.195312 31244.6875 18697.617188 32347.890625 18075.78125 33116.015625 M 14873.90625 37648.085938 C 16607.1875 36585.507812 17986.914062 34878.007812 18349.296875 34410.390625 C 19390 33067.8125 20526.796875 31817.1875 21586.992188 30534.882812 C 22919.414062 28923.28125 25293.59375 27938.984375 25616.09375 25754.414062 C 25767.617188 24728.203125 26000.898438 23911.210938 26516.796875 22874.21875 C 26694.492188 22517.1875 27244.492188 21888.398438 27198.984375 21693.203125 C 27183.90625 21628.710938 26573.007812 21611.992188 26477.1875 21632.304688 C 25273.203125 21888.398438 24599.804688 23837.382812 24029.492188 25216.992188 C 23918.90625 25484.609375 23665.390625 25748.789062 23373.203125 26012.617188 C 22896.40625 26443.007812 22020.3125 26946.796875 21806.71875 27088.398438 C 21211.40625 27483.007812 20655.703125 27739.101562 19610.507812 28545.585938 M 23182.695312 26164.414062 C 23632.617188 25473.007812 23020.898438 23518.203125 22851.992188 22938.203125 C 22441.796875 21529.882812 22911.914062 20024.804688 22587.382812 20198.515625 C 21462.8125 20800.195312 21617.8125 21992.382812 21806.71875 23271.015625 C 22005.195312 24615.3125 21740.585938 25831.484375 21079.101562 26638.085938 M 19650.195312 24256.796875 C 19703.085938 23591.09375 18467.695312 22448.710938 18393.28125 21624.21875 C 18353.59375 21184.296875 18472.695312 20646.601562 18843.085938 20467.304688 C 18928.90625 20425.78125 18978.007812 20935.390625 19028.398438 21120.195312 C 19100.390625 21384.609375 19279.6875 21773.203125 19557.617188 22131.601562 C 19985.703125 22683.984375 20430.78125 22899.804688 20721.914062 23514.296875 M 21079.101562 26638.085938 C 21317.1875 25767.5 21290.78125 25146.992188 21118.789062 24487.304688 M 22706.40625 26484.414062 C 21973.203125 26768.203125 20814.492188 26446.015625 19941.289062 27047.695312 M 18710.78125 25665.117188 C 18591.71875 24243.984375 17277.1875 23459.21875 17324.609375 22502.890625 C 17348.085938 22029.21875 17662.5 21710.507812 17665.585938 21734.804688 C 17705.3125 22041.992188 17824.414062 22528.515625 17989.101562 22746.09375 C 18373.28125 23253.710938 18538.789062 23232.617188 18948.984375 23680.703125 C 19270.703125 24032.1875 19306.210938 24141.601562 19425.3125 24487.304688 " transform="matrix(0.1, 0, 0, -0.1, 0, 4000)"/>
<path fill="none" stroke-width="141.53" stroke-linecap="round" stroke-linejoin="round" stroke="rgb(50.584412%, 36.888123%, 25.097656%)" stroke-opacity="1" stroke-miterlimit="10" d="M 17594.21875 6292.109375 C 17594.21875 6292.109375 18090.703125 6292.109375 18200.507812 6292.109375 C 18220.390625 6292.109375 18483.085938 6957.890625 18488.710938 6948.671875 C 18561.289062 6828.75 18707.382812 6403.203125 18776.914062 6292.109375 C 18810.117188 6239.0625 19422.890625 6281.992188 19472.617188 6231.484375 C 19485.898438 6218.046875 18998.28125 5819.257812 18965.78125 5736.523438 C 18945.898438 5686.015625 19087.5 5238.632812 19087.5 5054.726562 C 19087.5 5041.445312 18588.085938 5403.164062 18488.710938 5483.984375 C 18456.015625 5510.625 17874.492188 5030.507812 17806.015625 5100.15625 C 17775.585938 5130.976562 18021.601562 5766.835938 18021.601562 5766.835938 Z M 26824.6875 21576.210938 C 26824.6875 21268.789062 26706.601562 14237.1875 26706.601562 12003.789062 M 25827.382812 11347.109375 C 25827.382812 11347.109375 26323.789062 11347.109375 26433.59375 11347.109375 C 26453.515625 11347.109375 26716.289062 12012.890625 26721.796875 12003.710938 C 26794.414062 11883.710938 26940.507812 11458.203125 27010 11347.109375 C 27043.203125 11294.101562 27656.09375 11336.992188 27705.703125 11286.484375 C 27718.984375 11273.007812 27231.40625 10874.21875 27198.90625 10791.484375 C 27178.984375 10741.015625 27320.585938 10293.59375 27320.585938 10109.6875 C 27320.585938 10096.40625 26821.210938 10458.203125 26721.796875 10538.984375 C 26689.101562 10565.585938 26107.617188 10085.507812 26039.101562 10155.117188 C 26008.710938 10186.015625 26254.6875 10821.796875 26254.6875 10821.796875 Z M 26742.382812 14366.210938 C 26921.914062 14366.210938 27067.617188 14225.195312 27067.617188 14051.484375 C 27067.617188 13877.8125 26921.914062 13736.796875 26742.382812 13736.796875 C 26562.890625 13736.796875 26417.1875 13877.8125 26417.1875 14051.484375 C 26417.1875 14225.195312 26562.890625 14366.210938 26742.382812 14366.210938 Z M 26742.382812 16021.601562 C 26921.914062 16021.601562 27067.617188 15880.585938 27067.617188 15706.914062 C 27067.617188 15533.28125 26921.914062 15392.304688 26742.382812 15392.304688 C 26562.890625 15392.304688 26417.1875 15533.28125 26417.1875 15706.914062 C 26417.1875 15880.585938 26562.890625 16021.601562 26742.382812 16021.601562 Z M 26742.382812 17677.109375 C 26921.914062 17677.109375 27067.617188 17536.09375 27067.617188 17362.382812 C 27067.617188 17188.710938 26921.914062 17047.695312 26742.382812 17047.695312 C 26562.890625 17047.695312 26417.1875 17188.710938 26417.1875 17362.382812 C 26417.1875 17536.09375 26562.890625 17677.109375 26742.382812 17677.109375 Z M 26742.382812 12751.71875 C 26921.914062 12751.71875 27067.617188 12610.703125 27067.617188 12437.109375 C 27067.617188 12263.398438 26921.914062 12122.382812 26742.382812 12122.382812 C 26562.890625 12122.382812 26417.1875 12263.398438 26417.1875 12437.109375 C 26417.1875 12610.703125 26562.890625 12751.71875 26742.382812 12751.71875 Z M 22528.59375 20184.804688 C 22570.390625 19090.78125 22514.609375 17942.109375 22521.289062 17094.21875 C 22535.585938 15283.203125 22500.585938 14386.601562 22528.59375 12554.101562 M 21635.390625 11897.382812 C 21635.390625 11897.382812 22131.914062 11897.382812 22241.71875 11897.382812 C 22261.484375 11897.382812 22524.296875 12563.203125 22529.882812 12553.984375 C 22602.382812 12434.101562 22748.515625 12008.59375 22818.085938 11897.382812 C 22851.289062 11844.414062 23464.101562 11887.304688 23513.789062 11836.796875 C 23526.992188 11823.398438 23039.492188 11424.609375 23006.914062 11341.914062 C 22987.109375 11291.40625 23128.710938 10843.984375 23128.710938 10660.117188 C 23128.710938 10646.796875 22629.296875 11008.515625 22529.882812 11089.296875 C 22497.109375 11115.898438 21915.585938 10635.78125 21847.109375 10705.507812 C 21816.796875 10736.289062 22062.8125 11372.1875 22062.8125 11372.1875 Z M 22540.3125 13248.28125 C 22719.804688 13248.28125 22865.507812 13107.304688 22865.507812 12933.59375 C 22865.507812 12759.882812 22719.804688 12618.90625 22540.3125 12618.90625 C 22360.78125 12618.90625 22215.117188 12759.882812 22215.117188 12933.59375 C 22215.117188 13107.304688 22360.78125 13248.28125 22540.3125 13248.28125 Z M 22540.3125 14766.914062 C 22719.804688 14766.914062 22865.507812 14625.898438 22865.507812 14452.1875 C 22865.507812 14278.59375 22719.804688 14137.617188 22540.3125 14137.617188 C 22360.78125 14137.617188 22215.117188 14278.59375 22215.117188 14452.1875 C 22215.117188 14625.898438 22360.78125 14766.914062 22540.3125 14766.914062 Z M 22540.3125 16285.585938 C 22719.804688 16285.585938 22865.507812 16144.609375 22865.507812 15970.898438 C 22865.507812 15797.1875 22719.804688 15656.210938 22540.3125 15656.210938 C 22360.78125 15656.210938 22215.117188 15797.1875 22215.117188 15970.898438 C 22215.117188 16144.609375 22360.78125 16285.585938 22540.3125 16285.585938 Z M 22540.3125 17804.21875 C 22719.804688 17804.21875 22865.507812 17663.203125 22865.507812 17489.492188 C 22865.507812 17315.78125 22719.804688 17174.804688 22540.3125 17174.804688 C 22360.78125 17174.804688 22215.117188 17315.78125 22215.117188 17489.492188 C 22215.117188 17663.203125 22360.78125 17804.21875 22540.3125 17804.21875 Z M 20202.890625 16610.507812 C 20202.890625 16610.507812 20699.414062 16610.507812 20809.21875 16610.507812 C 20828.984375 16610.507812 21091.796875 17276.289062 21097.382812 17267.109375 C 21169.882812 17147.1875 21316.015625 16721.601562 21385.585938 16610.507812 C 21418.789062 16557.5 22031.601562 16600.390625 22081.289062 16549.882812 C 22094.492188 16536.40625 21606.992188 16137.695312 21574.414062 16054.882812 C 21554.609375 16004.414062 21696.210938 15557.109375 21696.210938 15373.085938 C 21696.210938 15359.882812 21196.796875 15721.601562 21097.382812 15802.382812 C 21064.609375 15828.984375 20483.085938 15348.90625 20414.609375 15418.515625 C 20384.296875 15449.414062 20630.3125 16085.195312 20630.3125 16085.195312 Z M 21167.8125 23434.609375 C 21167.8125 22926.796875 21123.984375 18101.40625 21081.09375 17267.1875 M 21093.710938 17893.59375 C 21273.085938 17893.59375 21418.90625 17752.617188 21418.90625 17578.984375 C 21418.90625 17405.3125 21273.085938 17264.296875 21093.710938 17264.296875 C 20914.21875 17264.296875 20768.515625 17405.3125 20768.515625 17578.984375 C 20768.515625 17752.617188 20914.21875 17893.59375 21093.710938 17893.59375 Z M 21136.09375 19343.90625 C 21315.585938 19343.90625 21461.289062 19202.890625 21461.289062 19029.21875 C 21461.289062 18855.507812 21315.585938 18714.492188 21136.09375 18714.492188 C 20956.601562 18714.492188 20810.898438 18855.507812 20810.898438 19029.21875 C 20810.898438 19202.890625 20956.601562 19343.90625 21136.09375 19343.90625 Z M 21178.515625 20794.101562 C 21358.007812 20794.101562 21503.710938 20653.085938 21503.710938 20479.414062 C 21503.710938 20305.703125 21358.007812 20164.6875 21178.515625 20164.6875 C 20998.984375 20164.6875 20853.28125 20305.703125 20853.28125 20479.414062 C 20853.28125 20653.085938 20998.984375 20794.101562 21178.515625 20794.101562 Z M 18668.789062 20541.71875 C 18682.8125 19351.992188 18640.898438 18572.5 18635.117188 17546.914062 C 18625.117188 15801.992188 18487.382812 8079.6875 18487.382812 6948.789062 M 18504.101562 7578.125 C 18683.59375 7578.125 18829.296875 7437.148438 18829.296875 7263.476562 C 18829.296875 7089.765625 18683.59375 6948.789062 18504.101562 6948.789062 C 18324.609375 6948.789062 18178.90625 7089.765625 18178.90625 7263.476562 C 18178.90625 7437.148438 18324.609375 7578.125 18504.101562 7578.125 Z M 18504.101562 9199.84375 C 18683.59375 9199.84375 18829.296875 9058.828125 18829.296875 8885.15625 C 18829.296875 8711.484375 18683.59375 8570.46875 18504.101562 8570.46875 C 18324.609375 8570.46875 18178.90625 8711.484375 18178.90625 8885.15625 C 18178.90625 9058.828125 18324.609375 9199.84375 18504.101562 9199.84375 Z M 18546.484375 10821.484375 C 18726.015625 10821.484375 18871.71875 10680.507812 18871.71875 10506.914062 C 18871.71875 10333.203125 18726.015625 10192.1875 18546.484375 10192.1875 C 18366.992188 10192.1875 18221.289062 10333.203125 18221.289062 10506.914062 C 18221.289062 10680.507812 18366.992188 10821.484375 18546.484375 10821.484375 Z M 18546.484375 12443.203125 C 18726.015625 12443.203125 18871.71875 12302.1875 18871.71875 12128.59375 C 18871.71875 11954.882812 18726.015625 11813.90625 18546.484375 11813.90625 C 18366.992188 11813.90625 18221.289062 11954.882812 18221.289062 12128.59375 C 18221.289062 12302.1875 18366.992188 12443.203125 18546.484375 12443.203125 Z M 18588.90625 14064.882812 C 18768.398438 14064.882812 18914.101562 13923.90625 18914.101562 13750.3125 C 18914.101562 13576.601562 18768.398438 13435.585938 18588.90625 13435.585938 C 18409.414062 13435.585938 18263.710938 13576.601562 18263.710938 13750.3125 C 18263.710938 13923.90625 18409.414062 14064.882812 18588.90625 14064.882812 Z M 18631.289062 15686.601562 C 18810.78125 15686.601562 18956.484375 15545.585938 18956.484375 15371.914062 C 18956.484375 15198.28125 18810.78125 15057.304688 18631.289062 15057.304688 C 18451.796875 15057.304688 18306.09375 15198.28125 18306.09375 15371.914062 C 18306.09375 15545.585938 18451.796875 15686.601562 18631.289062 15686.601562 Z M 18631.289062 15686.601562 " transform="matrix(0.1, 0, 0, -0.1, 0, 4000)"/>
<path fill="none" stroke-width="132.09" stroke-linecap="round" stroke-linejoin="round" stroke="rgb(50.584412%, 36.888123%, 25.097656%)" stroke-opacity="1" stroke-miterlimit="10" d="M 21903.28125 6898.320312 C 21983.28125 6894.570312 22741.484375 7354.101562 23210.78125 7773.789062 C 23745.195312 8251.679688 24207.382812 9030.585938 24207.382812 9030.585938 C 24207.382812 9030.585938 23485.390625 8602.773438 22875.78125 8052.8125 C 22524.414062 7735.742188 22245.3125 7424.960938 21903.28125 6898.320312 Z M 24217.5 6867.5 C 24221.601562 6940.859375 23720.703125 7636.40625 23263.203125 8066.914062 C 22742.304688 8557.1875 21893.203125 8981.210938 21893.203125 8981.210938 C 21893.203125 8981.210938 22359.609375 8318.90625 22958.984375 7759.6875 C 23304.6875 7437.304688 23643.398438 7181.210938 24217.5 6867.5 Z M 23130.585938 9456.914062 C 23071.210938 9406.5625 22881.71875 8579.023438 22866.40625 7971.210938 C 22848.984375 7279.023438 23109.6875 6421.875 23109.6875 6421.875 C 23109.6875 6421.875 23297.5 7202.96875 23313.710938 7995.898438 C 23323.007812 8453.046875 23286.015625 8857.8125 23130.585938 9456.914062 Z M 21470.898438 7944.726562 C 21523.28125 7890.117188 22402.1875 7730.3125 23050.390625 7729.140625 C 23788.59375 7727.8125 24708.789062 7990.742188 24708.789062 7990.742188 C 24708.789062 7990.742188 23879.492188 8149.960938 23033.789062 8148.007812 C 22546.210938 8146.875 22113.515625 8103.398438 21470.898438 7944.726562 Z M 21470.898438 7944.726562 " transform="matrix(0.1, 0, 0, -0.1, 0, 4000)"/>
<path fill="none" stroke-width="132.09" stroke-linecap="round" stroke-linejoin="round" stroke="rgb(50.584412%, 36.888123%, 25.097656%)" stroke-opacity="1" stroke-miterlimit="10" d="M 16253.90625 11636.210938 C 16451.09375 11636.210938 16611.289062 11486.09375 16611.289062 11301.210938 C 16611.289062 11116.289062 16451.09375 10966.210938 16253.90625 10966.210938 C 16056.71875 10966.210938 15896.601562 11116.289062 15896.601562 11301.210938 C 15896.601562 11486.09375 16056.71875 11636.210938 16253.90625 11636.210938 Z M 16253.90625 11636.210938 " transform="matrix(0.1, 0, 0, -0.1, 0, 4000)"/>
<path fill="none" stroke-width="132.09" stroke-linecap="round" stroke-linejoin="round" stroke="rgb(50.584412%, 36.888123%, 25.097656%)" stroke-opacity="1" stroke-miterlimit="10" d="M 15917.304688 3632.148438 C 16114.609375 3632.148438 16274.6875 3482.03125 16274.6875 3297.1875 C 16274.6875 3112.304688 16114.609375 2962.1875 15917.304688 2962.1875 C 15720.117188 2962.1875 15560 3112.304688 15560 3297.1875 C 15560 3482.03125 15720.117188 3632.148438 15917.304688 3632.148438 Z M 15917.304688 3632.148438 " transform="matrix(0.1, 0, 0, -0.1, 0, 4000)"/>
<path fill="none" stroke-width="132.09" stroke-linecap="round" stroke-linejoin="round" stroke="rgb(50.584412%, 36.888123%, 25.097656%)" stroke-opacity="1" stroke-miterlimit="10" d="M 12651.289062 8846.40625 C 12848.515625 8846.40625 13008.710938 8696.328125 13008.710938 8511.445312 C 13008.710938 8326.5625 12848.515625 8176.484375 12651.289062 8176.484375 C 12454.101562 8176.484375 12293.984375 8326.5625 12293.984375 8511.445312 C 12293.984375 8696.328125 12454.101562 8846.40625 12651.289062 8846.40625 Z M 12651.289062 8846.40625 " transform="matrix(0.1, 0, 0, -0.1, 0, 4000)"/>
<path fill="none" stroke-width="132.09" stroke-linecap="round" stroke-linejoin="round" stroke="rgb(50.584412%, 36.888123%, 25.097656%)" stroke-opacity="1" stroke-miterlimit="10" d="M 14397.382812 6446.875 C 14462.304688 6443.828125 15077.304688 6816.601562 15458.007812 7156.992188 C 15891.484375 7544.6875 16266.484375 8176.484375 16266.484375 8176.484375 C 16266.484375 8176.484375 15680.78125 7829.453125 15186.289062 7383.359375 C 14901.289062 7126.171875 14674.804688 6874.0625 14397.382812 6446.875 Z M 16274.609375 6421.875 C 16278.007812 6481.367188 15871.601562 7045.585938 15500.585938 7394.804688 C 15078.007812 7792.460938 14389.296875 8136.445312 14389.296875 8136.445312 C 14389.296875 8136.445312 14767.5 7599.179688 15253.789062 7145.585938 C 15534.21875 6884.0625 15808.984375 6676.367188 16274.609375 6421.875 Z M 16274.609375 6421.875 " transform="matrix(0.1, 0, 0, -0.1, 0, 4000)"/>
<path fill="none" stroke-width="138.76" stroke-linecap="round" stroke-linejoin="round" stroke="rgb(50.584412%, 36.888123%, 25.097656%)" stroke-opacity="1" stroke-miterlimit="10" d="M 20860.195312 4124.21875 C 20858.007812 4062.96875 21269.296875 3487.734375 21641.71875 3133.242188 C 22065.78125 2729.570312 22751.09375 2384.648438 22751.09375 2384.648438 C 22751.09375 2384.648438 22368.007812 2932.5 21880.117188 3392.890625 C 21598.789062 3658.320312 21323.984375 3868.476562 20860.195312 4124.21875 Z M 20866.484375 2351.953125 C 20930.507812 2349.648438 21529.414062 2741.210938 21897.890625 3096.445312 C 22317.617188 3501.015625 22674.882812 4155.976562 22674.882812 4155.976562 C 22674.882812 4155.976562 22104.492188 3791.289062 21625.898438 3325.820312 C 21349.882812 3057.460938 21131.601562 2795.117188 20866.484375 2351.953125 Z M 20866.484375 2351.953125 " transform="matrix(0.1, 0, 0, -0.1, 0, 4000)"/>
</svg>
