<?xml version="1.0" encoding="UTF-8"?>
<svg xmlns="http://www.w3.org/2000/svg" xmlns:xlink="http://www.w3.org/1999/xlink" width="4800" height="3300" viewBox="0 0 4800 3300">
<defs>
<clipPath id="clip-0">
<path clip-rule="nonzero" d="M 1722 1051 L 2390 1051 L 2390 2079 L 1722 2079 Z M 1722 1051 "/>
</clipPath>
<clipPath id="clip-1">
<path clip-rule="nonzero" d="M 2388.03125 1537.238281 C 2212.800781 1160.191406 2038.328125 971.050781 1733.648438 1084.128906 C 1723.210938 1088.011719 1724.75 1103.269531 1735.75 1105.019531 L 1836.300781 1121.070312 C 1697.238281 1132.898438 1670.609375 1215.75 1839.25 1199.46875 C 1745.671875 1209.710938 1712.691406 1232.941406 1753.449219 1271.960938 C 1729.019531 1301.871094 1741.070312 1312.609375 1779.050781 1309.75 C 1717.039062 1327.28125 1724.230469 1380.820312 1797.828125 1359.238281 C 1752.839844 1375.929688 1714.988281 1418.421875 1796.351562 1409.859375 C 1716.679688 1499.761719 1800.179688 1539.5 1949.210938 1552.070312 C 1907.46875 1567.359375 1872.320312 1585.25 1849.609375 1604.820312 C 1854.859375 1639.609375 1845.988281 1664.738281 1827.421875 1683.21875 C 1841.558594 1716.660156 1845.210938 1749.710938 1837.78125 1782.339844 C 1859.789062 1796.25 1865.460938 1823.828125 1859.96875 1860.738281 C 1877.359375 1888.421875 1892.960938 1917.371094 1889.550781 1959.859375 C 1923.609375 1976.808594 1944.960938 2002.910156 1957.601562 2035.308594 C 2004.550781 2033.078125 2039.621094 2048 2064.121094 2078.210938 C 2222.410156 1977.609375 2257.910156 1711.328125 2380.699219 1557.480469 L 2389.878906 1541.199219 C 2389.351562 1539.851562 2388.730469 1538.53125 2388.03125 1537.238281 Z M 2388.03125 1537.238281 "/>
</clipPath>
<clipPath id="clip-2">
<path clip-rule="nonzero" d="M 2388.03125 1537.238281 C 2212.800781 1160.191406 2038.328125 971.050781 1733.648438 1084.128906 C 1723.210938 1088.011719 1724.75 1103.269531 1735.75 1105.019531 L 1836.300781 1121.070312 C 1697.238281 1132.898438 1670.609375 1215.75 1839.25 1199.46875 C 1745.671875 1209.710938 1712.691406 1232.941406 1753.449219 1271.960938 C 1729.019531 1301.871094 1741.070312 1312.609375 1779.050781 1309.75 C 1717.039062 1327.28125 1724.230469 1380.820312 1797.828125 1359.238281 C 1752.839844 1375.929688 1714.988281 1418.421875 1796.351562 1409.859375 C 1716.679688 1499.761719 1800.179688 1539.5 1949.210938 1552.070312 C 1907.46875 1567.359375 1872.320312 1585.25 1849.609375 1604.820312 C 1854.859375 1639.609375 1845.988281 1664.738281 1827.421875 1683.21875 C 1841.558594 1716.660156 1845.210938 1749.710938 1837.78125 1782.339844 C 1859.789062 1796.25 1865.460938 1823.828125 1859.96875 1860.738281 C 1877.359375 1888.421875 1892.960938 1917.371094 1889.550781 1959.859375 C 1923.609375 1976.808594 1944.960938 2002.910156 1957.601562 2035.308594 C 2004.550781 2033.078125 2039.621094 2048 2064.121094 2078.210938 C 2222.410156 1977.609375 2257.910156 1711.328125 2380.699219 1557.480469 L 2389.878906 1541.199219 C 2389.351562 1539.851562 2388.730469 1538.53125 2388.03125 1537.238281 "/>
</clipPath>
<linearGradient id="linear-pattern-0" gradientUnits="userSpaceOnUse" x1="-0.0622406" y1="0" x2="1.097543" y2="0" gradientTransform="matrix(-875.775, 414.218, -414.218, -875.775, 2481.42, 1305.62)">
<stop offset="0" stop-color="rgb(40.571594%, 22.491455%, 62.188721%)" stop-opacity="1"/>
<stop offset="0.125" stop-color="rgb(40.571594%, 22.491455%, 62.188721%)" stop-opacity="1"/>
<stop offset="0.15625" stop-color="rgb(40.571594%, 22.491455%, 62.188721%)" stop-opacity="1"/>
<stop offset="0.171875" stop-color="rgb(40.492249%, 22.56012%, 62.225342%)" stop-opacity="1"/>
<stop offset="0.175781" stop-color="rgb(40.133667%, 22.872925%, 62.390137%)" stop-opacity="1"/>
<stop offset="0.179688" stop-color="rgb(39.852905%, 23.114014%, 62.516785%)" stop-opacity="1"/>
<stop offset="0.183594" stop-color="rgb(39.479065%, 23.434448%, 62.686157%)" stop-opacity="1"/>
<stop offset="0.1875" stop-color="rgb(39.103699%, 23.751831%, 62.85553%)" stop-opacity="1"/>
<stop offset="0.191406" stop-color="rgb(38.729858%, 24.069214%, 63.024902%)" stop-opacity="1"/>
<stop offset="0.195312" stop-color="rgb(38.352966%, 24.383545%, 63.194275%)" stop-opacity="1"/>
<stop offset="0.199219" stop-color="rgb(38.093567%, 24.681091%, 63.360596%)" stop-opacity="1"/>
<stop offset="0.203125" stop-color="rgb(37.834167%, 24.977112%, 63.526917%)" stop-opacity="1"/>
<stop offset="0.207031" stop-color="rgb(37.771606%, 25.144958%, 63.627625%)" stop-opacity="1"/>
<stop offset="0.210938" stop-color="rgb(37.70752%, 25.312805%, 63.728333%)" stop-opacity="1"/>
<stop offset="0.214844" stop-color="rgb(37.542725%, 25.463867%, 63.812256%)" stop-opacity="1"/>
<stop offset="0.21875" stop-color="rgb(37.376404%, 25.614929%, 63.896179%)" stop-opacity="1"/>
<stop offset="0.222656" stop-color="rgb(37.14447%, 26.016235%, 64.131165%)" stop-opacity="1"/>
<stop offset="0.226562" stop-color="rgb(36.911011%, 26.416016%, 64.367676%)" stop-opacity="1"/>
<stop offset="0.230469" stop-color="rgb(36.697388%, 26.701355%, 64.532471%)" stop-opacity="1"/>
<stop offset="0.234375" stop-color="rgb(36.482239%, 26.985168%, 64.698792%)" stop-opacity="1"/>
<stop offset="0.238281" stop-color="rgb(36.264038%, 27.287292%, 64.875793%)" stop-opacity="1"/>
<stop offset="0.242187" stop-color="rgb(36.045837%, 27.586365%, 65.05127%)" stop-opacity="1"/>
<stop offset="0.246094" stop-color="rgb(35.847473%, 27.967834%, 65.280151%)" stop-opacity="1"/>
<stop offset="0.25" stop-color="rgb(35.647583%, 28.349304%, 65.510559%)" stop-opacity="1"/>
<stop offset="0.253906" stop-color="rgb(35.545349%, 28.656006%, 65.696716%)" stop-opacity="1"/>
<stop offset="0.257812" stop-color="rgb(35.444641%, 28.959656%, 65.884399%)" stop-opacity="1"/>
<stop offset="0.261719" stop-color="rgb(35.203552%, 29.370117%, 66.130066%)" stop-opacity="1"/>
<stop offset="0.265625" stop-color="rgb(34.962463%, 29.777527%, 66.375732%)" stop-opacity="1"/>
<stop offset="0.269531" stop-color="rgb(34.709167%, 30.239868%, 66.656494%)" stop-opacity="1"/>
<stop offset="0.273438" stop-color="rgb(34.455872%, 30.700684%, 66.937256%)" stop-opacity="1"/>
<stop offset="0.277344" stop-color="rgb(34.295654%, 31.100464%, 67.182922%)" stop-opacity="1"/>
<stop offset="0.28125" stop-color="rgb(34.136963%, 31.500244%, 67.428589%)" stop-opacity="1"/>
<stop offset="0.285156" stop-color="rgb(34.074402%, 31.835938%, 67.63916%)" stop-opacity="1"/>
<stop offset="0.289062" stop-color="rgb(34.011841%, 32.170105%, 67.848206%)" stop-opacity="1"/>
<stop offset="0.292969" stop-color="rgb(33.924866%, 32.646179%, 68.145752%)" stop-opacity="1"/>
<stop offset="0.296875" stop-color="rgb(33.836365%, 33.120728%, 68.441772%)" stop-opacity="1"/>
<stop offset="0.300781" stop-color="rgb(33.616638%, 33.647156%, 68.768311%)" stop-opacity="1"/>
<stop offset="0.304688" stop-color="rgb(33.396912%, 34.173584%, 69.094849%)" stop-opacity="1"/>
<stop offset="0.308594" stop-color="rgb(33.261108%, 34.69696%, 69.421387%)" stop-opacity="1"/>
<stop offset="0.3125" stop-color="rgb(33.123779%, 35.218811%, 69.747925%)" stop-opacity="1"/>
<stop offset="0.316406" stop-color="rgb(33.197021%, 35.626221%, 70.005798%)" stop-opacity="1"/>
<stop offset="0.320312" stop-color="rgb(33.268738%, 36.035156%, 70.263672%)" stop-opacity="1"/>
<stop offset="0.324219" stop-color="rgb(33.189392%, 36.547852%, 70.584106%)" stop-opacity="1"/>
<stop offset="0.328125" stop-color="rgb(33.108521%, 37.059021%, 70.904541%)" stop-opacity="1"/>
<stop offset="0.332031" stop-color="rgb(32.98645%, 37.719727%, 71.318054%)" stop-opacity="1"/>
<stop offset="0.335938" stop-color="rgb(32.86438%, 38.378906%, 71.730042%)" stop-opacity="1"/>
<stop offset="0.339844" stop-color="rgb(32.746887%, 39.146423%, 72.210693%)" stop-opacity="1"/>
<stop offset="0.34375" stop-color="rgb(32.627869%, 39.91394%, 72.689819%)" stop-opacity="1"/>
<stop offset="0.347656" stop-color="rgb(32.684326%, 40.600586%, 73.117065%)" stop-opacity="1"/>
<stop offset="0.351562" stop-color="rgb(32.739258%, 41.288757%, 73.545837%)" stop-opacity="1"/>
<stop offset="0.355469" stop-color="rgb(32.833862%, 42.050171%, 74.01886%)" stop-opacity="1"/>
<stop offset="0.359375" stop-color="rgb(32.928467%, 42.814636%, 74.491882%)" stop-opacity="1"/>
<stop offset="0.363281" stop-color="rgb(33.096313%, 43.582153%, 74.963379%)" stop-opacity="1"/>
<stop offset="0.367188" stop-color="rgb(33.267212%, 44.354248%, 75.436401%)" stop-opacity="1"/>
<stop offset="0.371094" stop-color="rgb(33.2901%, 45.295715%, 76.014709%)" stop-opacity="1"/>
<stop offset="0.375" stop-color="rgb(33.312988%, 46.240234%, 76.593018%)" stop-opacity="1"/>
<stop offset="0.378906" stop-color="rgb(33.337402%, 47.187805%, 77.171326%)" stop-opacity="1"/>
<stop offset="0.382812" stop-color="rgb(33.363342%, 48.138428%, 77.75116%)" stop-opacity="1"/>
<stop offset="0.386719" stop-color="rgb(33.508301%, 49.029541%, 78.289795%)" stop-opacity="1"/>
<stop offset="0.390625" stop-color="rgb(33.654785%, 49.925232%, 78.82843%)" stop-opacity="1"/>
<stop offset="0.394531" stop-color="rgb(33.766174%, 50.846863%, 79.380798%)" stop-opacity="1"/>
<stop offset="0.398438" stop-color="rgb(33.879089%, 51.77002%, 79.934692%)" stop-opacity="1"/>
<stop offset="0.402344" stop-color="rgb(34.046936%, 52.758789%, 80.522156%)" stop-opacity="1"/>
<stop offset="0.40625" stop-color="rgb(34.217834%, 53.752136%, 81.109619%)" stop-opacity="1"/>
<stop offset="0.410156" stop-color="rgb(34.301758%, 54.736328%, 81.695557%)" stop-opacity="1"/>
<stop offset="0.414062" stop-color="rgb(34.387207%, 55.725098%, 82.28302%)" stop-opacity="1"/>
<stop offset="0.417969" stop-color="rgb(34.268188%, 56.684875%, 82.862854%)" stop-opacity="1"/>
<stop offset="0.421875" stop-color="rgb(34.14917%, 57.643127%, 83.442688%)" stop-opacity="1"/>
<stop offset="0.425781" stop-color="rgb(34.176636%, 58.628845%, 84.0271%)" stop-opacity="1"/>
<stop offset="0.429688" stop-color="rgb(34.205627%, 59.616089%, 84.613037%)" stop-opacity="1"/>
<stop offset="0.433594" stop-color="rgb(34.255981%, 60.604858%, 85.195923%)" stop-opacity="1"/>
<stop offset="0.4375" stop-color="rgb(34.306335%, 61.59668%, 85.780334%)" stop-opacity="1"/>
<stop offset="0.441406" stop-color="rgb(34.375%, 62.495422%, 86.306763%)" stop-opacity="1"/>
<stop offset="0.445313" stop-color="rgb(34.443665%, 63.397217%, 86.833191%)" stop-opacity="1"/>
<stop offset="0.449219" stop-color="rgb(34.480286%, 64.515686%, 87.489319%)" stop-opacity="1"/>
<stop offset="0.453125" stop-color="rgb(34.519958%, 65.637207%, 88.145447%)" stop-opacity="1"/>
<stop offset="0.457031" stop-color="rgb(34.584045%, 66.61377%, 88.713074%)" stop-opacity="1"/>
<stop offset="0.460938" stop-color="rgb(34.648132%, 67.59491%, 89.282227%)" stop-opacity="1"/>
<stop offset="0.464844" stop-color="rgb(34.661865%, 68.460083%, 89.787292%)" stop-opacity="1"/>
<stop offset="0.46875" stop-color="rgb(34.674072%, 69.325256%, 90.292358%)" stop-opacity="1"/>
<stop offset="0.472656" stop-color="rgb(34.703064%, 70.315552%, 90.867615%)" stop-opacity="1"/>
<stop offset="0.476562" stop-color="rgb(34.733582%, 71.308899%, 91.442871%)" stop-opacity="1"/>
<stop offset="0.480469" stop-color="rgb(34.898376%, 72.442627%, 92.085266%)" stop-opacity="1"/>
<stop offset="0.484375" stop-color="rgb(35.063171%, 73.580933%, 92.729187%)" stop-opacity="1"/>
<stop offset="0.488281" stop-color="rgb(35.018921%, 74.588013%, 93.318176%)" stop-opacity="1"/>
<stop offset="0.492188" stop-color="rgb(34.976196%, 75.595093%, 93.90564%)" stop-opacity="1"/>
<stop offset="0.496094" stop-color="rgb(34.851074%, 76.489258%, 94.436646%)" stop-opacity="1"/>
<stop offset="0.5" stop-color="rgb(34.727478%, 77.381897%, 94.967651%)" stop-opacity="1"/>
<stop offset="0.503906" stop-color="rgb(34.928894%, 78.111267%, 95.152283%)" stop-opacity="1"/>
<stop offset="0.507812" stop-color="rgb(35.13031%, 78.840637%, 95.332336%)" stop-opacity="1"/>
<stop offset="0.511719" stop-color="rgb(35.534668%, 79.08783%, 94.995117%)" stop-opacity="1"/>
<stop offset="0.515625" stop-color="rgb(35.940552%, 79.335022%, 94.65332%)" stop-opacity="1"/>
<stop offset="0.519531" stop-color="rgb(36.36322%, 79.447937%, 94.195557%)" stop-opacity="1"/>
<stop offset="0.523438" stop-color="rgb(36.784363%, 79.560852%, 93.736267%)" stop-opacity="1"/>
<stop offset="0.527344" stop-color="rgb(37.397766%, 79.740906%, 93.429565%)" stop-opacity="1"/>
<stop offset="0.53125" stop-color="rgb(38.011169%, 79.922485%, 93.121338%)" stop-opacity="1"/>
<stop offset="0.535156" stop-color="rgb(38.633728%, 80.105591%, 92.819214%)" stop-opacity="1"/>
<stop offset="0.539062" stop-color="rgb(39.256287%, 80.288696%, 92.515564%)" stop-opacity="1"/>
<stop offset="0.542969" stop-color="rgb(39.678955%, 80.401611%, 92.044067%)" stop-opacity="1"/>
<stop offset="0.546875" stop-color="rgb(40.101624%, 80.513%, 91.571045%)" stop-opacity="1"/>
<stop offset="0.550781" stop-color="rgb(40.524292%, 80.627441%, 91.12854%)" stop-opacity="1"/>
<stop offset="0.554688" stop-color="rgb(40.945435%, 80.740356%, 90.681458%)" stop-opacity="1"/>
<stop offset="0.558594" stop-color="rgb(41.423035%, 80.87616%, 90.370178%)" stop-opacity="1"/>
<stop offset="0.5625" stop-color="rgb(41.899109%, 81.013489%, 90.057373%)" stop-opacity="1"/>
<stop offset="0.566406" stop-color="rgb(42.532349%, 81.202698%, 89.802551%)" stop-opacity="1"/>
<stop offset="0.570313" stop-color="rgb(43.165588%, 81.391907%, 89.544678%)" stop-opacity="1"/>
<stop offset="0.574219" stop-color="rgb(43.798828%, 81.582642%, 89.329529%)" stop-opacity="1"/>
<stop offset="0.578125" stop-color="rgb(44.432068%, 81.773376%, 89.11438%)" stop-opacity="1"/>
<stop offset="0.582031" stop-color="rgb(44.865417%, 81.900024%, 88.871765%)" stop-opacity="1"/>
<stop offset="0.585938" stop-color="rgb(45.298767%, 82.026672%, 88.626099%)" stop-opacity="1"/>
<stop offset="0.589844" stop-color="rgb(45.625305%, 82.122803%, 88.465881%)" stop-opacity="1"/>
<stop offset="0.59375" stop-color="rgb(45.950317%, 82.217407%, 88.305664%)" stop-opacity="1"/>
<stop offset="0.597656" stop-color="rgb(46.243286%, 82.302856%, 88.145447%)" stop-opacity="1"/>
<stop offset="0.601562" stop-color="rgb(46.534729%, 82.388306%, 87.982178%)" stop-opacity="1"/>
<stop offset="0.605469" stop-color="rgb(46.746826%, 82.447815%, 87.818909%)" stop-opacity="1"/>
<stop offset="0.609375" stop-color="rgb(46.957397%, 82.507324%, 87.654114%)" stop-opacity="1"/>
<stop offset="0.613281" stop-color="rgb(47.169495%, 82.56073%, 87.361145%)" stop-opacity="1"/>
<stop offset="0.617188" stop-color="rgb(47.380066%, 82.61261%, 87.06665%)" stop-opacity="1"/>
<stop offset="0.621094" stop-color="rgb(47.766113%, 82.727051%, 86.875916%)" stop-opacity="1"/>
<stop offset="0.625" stop-color="rgb(48.150635%, 82.839966%, 86.682129%)" stop-opacity="1"/>
<stop offset="0.75" stop-color="rgb(48.193359%, 82.852173%, 86.66687%)" stop-opacity="1"/>
<stop offset="1" stop-color="rgb(48.236084%, 82.865906%, 86.650085%)" stop-opacity="1"/>
</linearGradient>
<clipPath id="clip-3">
<path clip-rule="nonzero" d="M 2410 1051 L 3078 1051 L 3078 2079 L 2410 2079 Z M 2410 1051 "/>
</clipPath>
<clipPath id="clip-4">
<path clip-rule="nonzero" d="M 2963.699219 1121.070312 L 3064.25 1105.019531 C 3075.25 1103.269531 3076.789062 1088.011719 3066.351562 1084.128906 C 2761.671875 971.050781 2587.199219 1160.191406 2411.96875 1537.238281 C 2411.269531 1538.53125 2410.648438 1539.851562 2410.121094 1541.199219 L 2419.300781 1557.480469 C 2542.089844 1711.328125 2577.589844 1977.609375 2735.878906 2078.210938 C 2760.378906 2048 2795.449219 2033.078125 2842.398438 2035.308594 C 2855.039062 2002.910156 2876.390625 1976.808594 2910.449219 1959.859375 C 2907.039062 1917.371094 2922.640625 1888.421875 2940.03125 1860.738281 C 2934.539062 1823.828125 2940.210938 1796.25 2962.21875 1782.339844 C 2954.789062 1749.710938 2958.441406 1716.660156 2972.578125 1683.21875 C 2954.011719 1664.738281 2945.140625 1639.609375 2950.390625 1604.820312 C 2927.679688 1585.25 2892.53125 1567.359375 2850.789062 1552.070312 C 2999.820312 1539.5 3083.320312 1499.761719 3003.648438 1409.859375 C 3085.011719 1418.421875 3047.160156 1375.929688 3002.171875 1359.238281 C 3075.769531 1380.820312 3082.960938 1327.28125 3020.949219 1309.75 C 3058.929688 1312.609375 3070.980469 1301.871094 3046.550781 1271.960938 C 3087.308594 1232.941406 3054.328125 1209.710938 2960.75 1199.46875 C 3129.390625 1215.75 3102.761719 1132.898438 2963.699219 1121.070312 Z M 2963.699219 1121.070312 "/>
</clipPath>
<clipPath id="clip-5">
<path clip-rule="nonzero" d="M 2963.699219 1121.070312 L 3064.25 1105.019531 C 3075.25 1103.269531 3076.789062 1088.011719 3066.351562 1084.128906 C 2761.671875 971.050781 2587.199219 1160.191406 2411.96875 1537.238281 C 2411.269531 1538.53125 2410.648438 1539.851562 2410.121094 1541.199219 L 2419.300781 1557.480469 C 2542.089844 1711.328125 2577.589844 1977.609375 2735.878906 2078.210938 C 2760.378906 2048 2795.449219 2033.078125 2842.398438 2035.308594 C 2855.039062 2002.910156 2876.390625 1976.808594 2910.449219 1959.859375 C 2907.039062 1917.371094 2922.640625 1888.421875 2940.03125 1860.738281 C 2934.539062 1823.828125 2940.210938 1796.25 2962.21875 1782.339844 C 2954.789062 1749.710938 2958.441406 1716.660156 2972.578125 1683.21875 C 2954.011719 1664.738281 2945.140625 1639.609375 2950.390625 1604.820312 C 2927.679688 1585.25 2892.53125 1567.359375 2850.789062 1552.070312 C 2999.820312 1539.5 3083.320312 1499.761719 3003.648438 1409.859375 C 3085.011719 1418.421875 3047.160156 1375.929688 3002.171875 1359.238281 C 3075.769531 1380.820312 3082.960938 1327.28125 3020.949219 1309.75 C 3058.929688 1312.609375 3070.980469 1301.871094 3046.550781 1271.960938 C 3087.308594 1232.941406 3054.328125 1209.710938 2960.75 1199.46875 C 3129.390625 1215.75 3102.761719 1132.898438 2963.699219 1121.070312 "/>
</clipPath>
<linearGradient id="linear-pattern-1" gradientUnits="userSpaceOnUse" x1="0.000000000000000444" y1="0" x2="1.077293" y2="0" gradientTransform="matrix(667.664, 0, 0, 667.664, 2410.12, 1564.91)">
<stop offset="0" stop-color="rgb(40.571594%, 22.491455%, 62.188721%)" stop-opacity="1"/>
<stop offset="0.0078125" stop-color="rgb(40.435791%, 22.610474%, 62.251282%)" stop-opacity="1"/>
<stop offset="0.0117188" stop-color="rgb(40.065002%, 22.930908%, 62.420654%)" stop-opacity="1"/>
<stop offset="0.015625" stop-color="rgb(39.830017%, 23.13385%, 62.527466%)" stop-opacity="1"/>
<stop offset="0.0195312" stop-color="rgb(39.558411%, 23.36731%, 62.651062%)" stop-opacity="1"/>
<stop offset="0.0234375" stop-color="rgb(39.285278%, 23.600769%, 62.774658%)" stop-opacity="1"/>
<stop offset="0.0273438" stop-color="rgb(39.01062%, 23.832703%, 62.898254%)" stop-opacity="1"/>
<stop offset="0.03125" stop-color="rgb(38.735962%, 24.061584%, 63.021851%)" stop-opacity="1"/>
<stop offset="0.0351562" stop-color="rgb(38.461304%, 24.291992%, 63.143921%)" stop-opacity="1"/>
<stop offset="0.0390625" stop-color="rgb(38.186646%, 24.520874%, 63.267517%)" stop-opacity="1"/>
<stop offset="0.0429688" stop-color="rgb(38.021851%, 24.734497%, 63.389587%)" stop-opacity="1"/>
<stop offset="0.046875" stop-color="rgb(37.85553%, 24.94812%, 63.510132%)" stop-opacity="1"/>
<stop offset="0.0507812" stop-color="rgb(37.788391%, 25.086975%, 63.594055%)" stop-opacity="1"/>
<stop offset="0.0546875" stop-color="rgb(37.721252%, 25.227356%, 63.676453%)" stop-opacity="1"/>
<stop offset="0.0625" stop-color="rgb(37.661743%, 25.32959%, 63.735962%)" stop-opacity="1"/>
<stop offset="0.0703125" stop-color="rgb(37.458801%, 25.563049%, 63.868713%)" stop-opacity="1"/>
<stop offset="0.0742188" stop-color="rgb(37.145996%, 25.997925%, 64.120483%)" stop-opacity="1"/>
<stop offset="0.078125" stop-color="rgb(36.973572%, 26.304626%, 64.302063%)" stop-opacity="1"/>
<stop offset="0.0820313" stop-color="rgb(36.81488%, 26.530457%, 64.433289%)" stop-opacity="1"/>
<stop offset="0.0859375" stop-color="rgb(36.656189%, 26.756287%, 64.564514%)" stop-opacity="1"/>
<stop offset="0.0898438" stop-color="rgb(36.499023%, 26.963806%, 64.686584%)" stop-opacity="1"/>
<stop offset="0.09375" stop-color="rgb(36.341858%, 27.1698%, 64.807129%)" stop-opacity="1"/>
<stop offset="0.0976562" stop-color="rgb(36.180115%, 27.403259%, 64.942932%)" stop-opacity="1"/>
<stop offset="0.101562" stop-color="rgb(36.018372%, 27.633667%, 65.078735%)" stop-opacity="1"/>
<stop offset="0.105469" stop-color="rgb(35.844421%, 27.935791%, 65.258789%)" stop-opacity="1"/>
<stop offset="0.109375" stop-color="rgb(35.668945%, 28.236389%, 65.438843%)" stop-opacity="1"/>
<stop offset="0.113281" stop-color="rgb(35.63385%, 28.430176%, 65.559387%)" stop-opacity="1"/>
<stop offset="0.117188" stop-color="rgb(35.598755%, 28.622437%, 65.679932%)" stop-opacity="1"/>
<stop offset="0.121094" stop-color="rgb(35.462952%, 28.892517%, 65.841675%)" stop-opacity="1"/>
<stop offset="0.125" stop-color="rgb(35.325623%, 29.161072%, 66.004944%)" stop-opacity="1"/>
<stop offset="0.128906" stop-color="rgb(35.150146%, 29.460144%, 66.184998%)" stop-opacity="1"/>
<stop offset="0.132812" stop-color="rgb(34.97467%, 29.75769%, 66.363525%)" stop-opacity="1"/>
<stop offset="0.136719" stop-color="rgb(34.794617%, 30.072021%, 66.55426%)" stop-opacity="1"/>
<stop offset="0.140625" stop-color="rgb(34.614563%, 30.383301%, 66.743469%)" stop-opacity="1"/>
<stop offset="0.144531" stop-color="rgb(34.41925%, 30.775452%, 66.981506%)" stop-opacity="1"/>
<stop offset="0.148438" stop-color="rgb(34.222412%, 31.164551%, 67.219543%)" stop-opacity="1"/>
<stop offset="0.152344" stop-color="rgb(34.172058%, 31.375122%, 67.350769%)" stop-opacity="1"/>
<stop offset="0.15625" stop-color="rgb(34.120178%, 31.585693%, 67.481995%)" stop-opacity="1"/>
<stop offset="0.160156" stop-color="rgb(34.074402%, 31.835938%, 67.63916%)" stop-opacity="1"/>
<stop offset="0.164063" stop-color="rgb(34.028625%, 32.086182%, 67.7948%)" stop-opacity="1"/>
<stop offset="0.167969" stop-color="rgb(33.969116%, 32.406616%, 67.996216%)" stop-opacity="1"/>
<stop offset="0.171875" stop-color="rgb(33.909607%, 32.725525%, 68.196106%)" stop-opacity="1"/>
<stop offset="0.175781" stop-color="rgb(33.828735%, 33.108521%, 68.434143%)" stop-opacity="1"/>
<stop offset="0.179688" stop-color="rgb(33.74939%, 33.488464%, 68.67218%)" stop-opacity="1"/>
<stop offset="0.183594" stop-color="rgb(33.551025%, 33.874512%, 68.910217%)" stop-opacity="1"/>
<stop offset="0.1875" stop-color="rgb(33.352661%, 34.260559%, 69.148254%)" stop-opacity="1"/>
<stop offset="0.191406" stop-color="rgb(33.258057%, 34.642029%, 69.386292%)" stop-opacity="1"/>
<stop offset="0.195312" stop-color="rgb(33.161926%, 35.021973%, 69.624329%)" stop-opacity="1"/>
<stop offset="0.199219" stop-color="rgb(33.16803%, 35.350037%, 69.830322%)" stop-opacity="1"/>
<stop offset="0.203125" stop-color="rgb(33.174133%, 35.678101%, 70.037842%)" stop-opacity="1"/>
<stop offset="0.207031" stop-color="rgb(33.21228%, 35.987854%, 70.233154%)" stop-opacity="1"/>
<stop offset="0.210937" stop-color="rgb(33.250427%, 36.297607%, 70.428467%)" stop-opacity="1"/>
<stop offset="0.214844" stop-color="rgb(33.178711%, 36.679077%, 70.666504%)" stop-opacity="1"/>
<stop offset="0.21875" stop-color="rgb(33.108521%, 37.059021%, 70.904541%)" stop-opacity="1"/>
<stop offset="0.222656" stop-color="rgb(33.021545%, 37.535095%, 71.202087%)" stop-opacity="1"/>
<stop offset="0.226562" stop-color="rgb(32.933044%, 38.011169%, 71.499634%)" stop-opacity="1"/>
<stop offset="0.230469" stop-color="rgb(32.832336%, 38.555908%, 71.839905%)" stop-opacity="1"/>
<stop offset="0.234375" stop-color="rgb(32.731628%, 39.100647%, 72.180176%)" stop-opacity="1"/>
<stop offset="0.238281" stop-color="rgb(32.691956%, 39.631653%, 72.512817%)" stop-opacity="1"/>
<stop offset="0.242187" stop-color="rgb(32.652283%, 40.164185%, 72.845459%)" stop-opacity="1"/>
<stop offset="0.246094" stop-color="rgb(32.691956%, 40.661621%, 73.155212%)" stop-opacity="1"/>
<stop offset="0.25" stop-color="rgb(32.733154%, 41.159058%, 73.466492%)" stop-opacity="1"/>
<stop offset="0.253906" stop-color="rgb(32.76062%, 41.740417%, 73.826599%)" stop-opacity="1"/>
<stop offset="0.257813" stop-color="rgb(32.788086%, 42.320251%, 74.186707%)" stop-opacity="1"/>
<stop offset="0.261719" stop-color="rgb(32.951355%, 42.823792%, 74.49646%)" stop-opacity="1"/>
<stop offset="0.265625" stop-color="rgb(33.114624%, 43.328857%, 74.806213%)" stop-opacity="1"/>
<stop offset="0.269531" stop-color="rgb(33.19397%, 43.942261%, 75.183105%)" stop-opacity="1"/>
<stop offset="0.273438" stop-color="rgb(33.27179%, 44.55719%, 75.559998%)" stop-opacity="1"/>
<stop offset="0.277344" stop-color="rgb(33.288574%, 45.243835%, 75.982666%)" stop-opacity="1"/>
<stop offset="0.28125" stop-color="rgb(33.305359%, 45.932007%, 76.403809%)" stop-opacity="1"/>
<stop offset="0.285156" stop-color="rgb(33.322144%, 46.62323%, 76.826477%)" stop-opacity="1"/>
<stop offset="0.289063" stop-color="rgb(33.340454%, 47.315979%, 77.249146%)" stop-opacity="1"/>
<stop offset="0.292969" stop-color="rgb(33.360291%, 48.010254%, 77.67334%)" stop-opacity="1"/>
<stop offset="0.296875" stop-color="rgb(33.378601%, 48.704529%, 78.096008%)" stop-opacity="1"/>
<stop offset="0.300781" stop-color="rgb(33.52356%, 49.336243%, 78.474426%)" stop-opacity="1"/>
<stop offset="0.304688" stop-color="rgb(33.668518%, 49.969482%, 78.85437%)" stop-opacity="1"/>
<stop offset="0.308594" stop-color="rgb(33.764648%, 50.63324%, 79.252625%)" stop-opacity="1"/>
<stop offset="0.3125" stop-color="rgb(33.860779%, 51.298523%, 79.649353%)" stop-opacity="1"/>
<stop offset="0.316406" stop-color="rgb(33.921814%, 52.009583%, 80.076599%)" stop-opacity="1"/>
<stop offset="0.320313" stop-color="rgb(33.982849%, 52.720642%, 80.502319%)" stop-opacity="1"/>
<stop offset="0.324219" stop-color="rgb(34.14917%, 53.451538%, 80.934143%)" stop-opacity="1"/>
<stop offset="0.328125" stop-color="rgb(34.317017%, 54.18396%, 81.364441%)" stop-opacity="1"/>
<stop offset="0.332031" stop-color="rgb(34.34906%, 54.899597%, 81.791687%)" stop-opacity="1"/>
<stop offset="0.335938" stop-color="rgb(34.382629%, 55.61676%, 82.217407%)" stop-opacity="1"/>
<stop offset="0.339844" stop-color="rgb(34.315491%, 56.318665%, 82.641602%)" stop-opacity="1"/>
<stop offset="0.34375" stop-color="rgb(34.246826%, 57.020569%, 83.065796%)" stop-opacity="1"/>
<stop offset="0.347656" stop-color="rgb(34.199524%, 57.728577%, 83.48999%)" stop-opacity="1"/>
<stop offset="0.351562" stop-color="rgb(34.150696%, 58.435059%, 83.914185%)" stop-opacity="1"/>
<stop offset="0.355469" stop-color="rgb(34.184265%, 59.156799%, 84.341431%)" stop-opacity="1"/>
<stop offset="0.359375" stop-color="rgb(34.21936%, 59.881592%, 84.770203%)" stop-opacity="1"/>
<stop offset="0.363281" stop-color="rgb(34.254456%, 60.609436%, 85.198975%)" stop-opacity="1"/>
<stop offset="0.367188" stop-color="rgb(34.291077%, 61.335754%, 85.627747%)" stop-opacity="1"/>
<stop offset="0.371094" stop-color="rgb(34.341431%, 61.978149%, 86.003113%)" stop-opacity="1"/>
<stop offset="0.375" stop-color="rgb(34.393311%, 62.620544%, 86.378479%)" stop-opacity="1"/>
<stop offset="0.378906" stop-color="rgb(34.428406%, 63.37738%, 86.82251%)" stop-opacity="1"/>
<stop offset="0.382812" stop-color="rgb(34.465027%, 64.134216%, 87.265015%)" stop-opacity="1"/>
<stop offset="0.386719" stop-color="rgb(34.495544%, 64.936829%, 87.736511%)" stop-opacity="1"/>
<stop offset="0.390625" stop-color="rgb(34.524536%, 65.740967%, 88.206482%)" stop-opacity="1"/>
<stop offset="0.394531" stop-color="rgb(34.568787%, 66.474915%, 88.633728%)" stop-opacity="1"/>
<stop offset="0.398438" stop-color="rgb(34.613037%, 67.208862%, 89.059448%)" stop-opacity="1"/>
<stop offset="0.402344" stop-color="rgb(34.671021%, 67.852783%, 89.430237%)" stop-opacity="1"/>
<stop offset="0.40625" stop-color="rgb(34.73053%, 68.495178%, 89.801025%)" stop-opacity="1"/>
<stop offset="0.410156" stop-color="rgb(34.672546%, 69.111633%, 90.167236%)" stop-opacity="1"/>
<stop offset="0.414062" stop-color="rgb(34.616089%, 69.726562%, 90.531921%)" stop-opacity="1"/>
<stop offset="0.417969" stop-color="rgb(34.667969%, 70.480347%, 90.966797%)" stop-opacity="1"/>
<stop offset="0.421875" stop-color="rgb(34.719849%, 71.235657%, 91.401672%)" stop-opacity="1"/>
<stop offset="0.425781" stop-color="rgb(34.870911%, 72.096252%, 91.886902%)" stop-opacity="1"/>
<stop offset="0.429687" stop-color="rgb(35.021973%, 72.9599%, 92.372131%)" stop-opacity="1"/>
<stop offset="0.433594" stop-color="rgb(35.072327%, 73.716736%, 92.807007%)" stop-opacity="1"/>
<stop offset="0.4375" stop-color="rgb(35.122681%, 74.475098%, 93.240356%)" stop-opacity="1"/>
<stop offset="0.441406" stop-color="rgb(35.02655%, 75.192261%, 93.666077%)" stop-opacity="1"/>
<stop offset="0.445312" stop-color="rgb(34.931946%, 75.907898%, 94.091797%)" stop-opacity="1"/>
<stop offset="0.449219" stop-color="rgb(34.841919%, 76.551819%, 94.474792%)" stop-opacity="1"/>
<stop offset="0.453125" stop-color="rgb(34.753418%, 77.194214%, 94.856262%)" stop-opacity="1"/>
<stop offset="0.457031" stop-color="rgb(34.809875%, 77.757263%, 95.079041%)" stop-opacity="1"/>
<stop offset="0.460937" stop-color="rgb(34.867859%, 78.320312%, 95.301819%)" stop-opacity="1"/>
<stop offset="0.464844" stop-color="rgb(35.128784%, 78.753662%, 95.275879%)" stop-opacity="1"/>
<stop offset="0.46875" stop-color="rgb(35.389709%, 79.187012%, 95.248413%)" stop-opacity="1"/>
<stop offset="0.472656" stop-color="rgb(35.697937%, 79.269409%, 94.915771%)" stop-opacity="1"/>
<stop offset="0.476562" stop-color="rgb(36.004639%, 79.351807%, 94.58313%)" stop-opacity="1"/>
<stop offset="0.480469" stop-color="rgb(36.312866%, 79.434204%, 94.248962%)" stop-opacity="1"/>
<stop offset="0.484375" stop-color="rgb(36.621094%, 79.516602%, 93.914795%)" stop-opacity="1"/>
<stop offset="0.488281" stop-color="rgb(37.0224%, 79.632568%, 93.655396%)" stop-opacity="1"/>
<stop offset="0.492187" stop-color="rgb(37.423706%, 79.747009%, 93.392944%)" stop-opacity="1"/>
<stop offset="0.496094" stop-color="rgb(37.886047%, 79.884338%, 93.179321%)" stop-opacity="1"/>
<stop offset="0.5" stop-color="rgb(38.348389%, 80.021667%, 92.965698%)" stop-opacity="1"/>
<stop offset="0.503906" stop-color="rgb(38.801575%, 80.155945%, 92.74292%)" stop-opacity="1"/>
<stop offset="0.507812" stop-color="rgb(39.253235%, 80.288696%, 92.518616%)" stop-opacity="1"/>
<stop offset="0.511719" stop-color="rgb(39.561462%, 80.371094%, 92.175293%)" stop-opacity="1"/>
<stop offset="0.515625" stop-color="rgb(39.86969%, 80.451965%, 91.83197%)" stop-opacity="1"/>
<stop offset="0.519531" stop-color="rgb(40.177917%, 80.534363%, 91.485596%)" stop-opacity="1"/>
<stop offset="0.523438" stop-color="rgb(40.484619%, 80.615234%, 91.139221%)" stop-opacity="1"/>
<stop offset="0.527344" stop-color="rgb(40.792847%, 80.699158%, 90.853882%)" stop-opacity="1"/>
<stop offset="0.53125" stop-color="rgb(41.101074%, 80.783081%, 90.567017%)" stop-opacity="1"/>
<stop offset="0.535156" stop-color="rgb(41.445923%, 80.882263%, 90.339661%)" stop-opacity="1"/>
<stop offset="0.539062" stop-color="rgb(41.790771%, 80.981445%, 90.110779%)" stop-opacity="1"/>
<stop offset="0.542969" stop-color="rgb(42.253113%, 81.117249%, 89.884949%)" stop-opacity="1"/>
<stop offset="0.546875" stop-color="rgb(42.715454%, 81.254578%, 89.657593%)" stop-opacity="1"/>
<stop offset="0.550781" stop-color="rgb(43.177795%, 81.396484%, 89.546204%)" stop-opacity="1"/>
<stop offset="0.554688" stop-color="rgb(43.638611%, 81.536865%, 89.433289%)" stop-opacity="1"/>
<stop offset="0.558594" stop-color="rgb(44.100952%, 81.674194%, 89.241028%)" stop-opacity="1"/>
<stop offset="0.5625" stop-color="rgb(44.563293%, 81.813049%, 89.047241%)" stop-opacity="1"/>
<stop offset="0.566406" stop-color="rgb(44.895935%, 81.90918%, 88.864136%)" stop-opacity="1"/>
<stop offset="0.570312" stop-color="rgb(45.228577%, 82.006836%, 88.68103%)" stop-opacity="1"/>
<stop offset="0.578125" stop-color="rgb(45.405579%, 82.05719%, 88.562012%)" stop-opacity="1"/>
<stop offset="0.582031" stop-color="rgb(45.889282%, 82.199097%, 88.328552%)" stop-opacity="1"/>
<stop offset="0.585938" stop-color="rgb(46.19751%, 82.292175%, 88.214111%)" stop-opacity="1"/>
<stop offset="0.59375" stop-color="rgb(46.37146%, 82.342529%, 88.095093%)" stop-opacity="1"/>
<stop offset="0.601563" stop-color="rgb(46.697998%, 82.434082%, 87.85553%)" stop-opacity="1"/>
<stop offset="0.605469" stop-color="rgb(47.006226%, 82.519531%, 87.574768%)" stop-opacity="1"/>
<stop offset="0.609375" stop-color="rgb(47.160339%, 82.56073%, 87.414551%)" stop-opacity="1"/>
<stop offset="0.613281" stop-color="rgb(47.323608%, 82.600403%, 87.17804%)" stop-opacity="1"/>
<stop offset="0.617188" stop-color="rgb(47.485352%, 82.640076%, 86.940002%)" stop-opacity="1"/>
<stop offset="0.621094" stop-color="rgb(47.793579%, 82.733154%, 86.82251%)" stop-opacity="1"/>
<stop offset="0.625" stop-color="rgb(48.100281%, 82.824707%, 86.703491%)" stop-opacity="1"/>
<stop offset="0.75" stop-color="rgb(48.168945%, 82.844543%, 86.677551%)" stop-opacity="1"/>
<stop offset="1" stop-color="rgb(48.236084%, 82.865906%, 86.650085%)" stop-opacity="1"/>
</linearGradient>
</defs>
<rect x="-480" y="-330" width="5760" height="3960" fill="rgb(100%, 100%, 100%)" fill-opacity="1"/>
<path fill-rule="nonzero" fill="rgb(6.266785%, 5.734253%, 5.047607%)" fill-opacity="1" d="M 2126.269531 2334.96875 C 2123.351562 2336.441406 2117.488281 2337.898438 2109.988281 2337.898438 C 2092.601562 2337.898438 2079.511719 2326.921875 2079.511719 2306.699219 C 2079.511719 2287.390625 2092.601562 2274.300781 2111.71875 2274.300781 C 2119.410156 2274.300781 2124.261719 2275.949219 2126.371094 2277.050781 L 2124.441406 2283.539062 C 2121.421875 2282.078125 2117.121094 2280.980469 2112 2280.980469 C 2097.539062 2280.980469 2087.929688 2290.230469 2087.929688 2306.421875 C 2087.929688 2321.519531 2096.621094 2331.21875 2111.628906 2331.21875 C 2116.480469 2331.21875 2121.421875 2330.21875 2124.628906 2328.660156 L 2126.269531 2334.96875 "/>
<path fill-rule="nonzero" fill="rgb(6.266785%, 5.734253%, 5.047607%)" fill-opacity="1" d="M 2139.171875 2306.511719 C 2139.171875 2319.691406 2146.308594 2331.5 2158.851562 2331.5 C 2171.480469 2331.5 2178.609375 2319.878906 2178.609375 2305.871094 C 2178.609375 2293.609375 2172.210938 2280.800781 2158.941406 2280.800781 C 2145.761719 2280.800781 2139.171875 2292.96875 2139.171875 2306.511719 Z M 2187.03125 2305.511719 C 2187.03125 2326.738281 2174.128906 2337.988281 2158.390625 2337.988281 C 2142.101562 2337.988281 2130.660156 2325.371094 2130.660156 2306.699219 C 2130.660156 2287.109375 2142.828125 2274.300781 2159.300781 2274.300781 C 2176.140625 2274.300781 2187.03125 2287.210938 2187.03125 2305.511719 "/>
<path fill-rule="nonzero" fill="rgb(6.266785%, 5.734253%, 5.047607%)" fill-opacity="1" d="M 2249.351562 2309.898438 C 2248.890625 2301.300781 2248.339844 2290.960938 2248.429688 2283.269531 L 2248.160156 2283.269531 C 2246.050781 2290.5 2243.488281 2298.191406 2240.378906 2306.699219 L 2229.488281 2336.621094 L 2223.449219 2336.621094 L 2213.46875 2307.25 C 2210.539062 2298.550781 2208.070312 2290.589844 2206.339844 2283.269531 L 2206.148438 2283.269531 C 2205.96875 2290.960938 2205.511719 2301.300781 2204.960938 2310.539062 L 2203.320312 2336.988281 L 2195.71875 2336.988281 L 2200.019531 2275.308594 L 2210.179688 2275.308594 L 2220.699219 2305.140625 C 2223.261719 2312.738281 2225.371094 2319.511719 2226.929688 2325.910156 L 2227.199219 2325.910156 C 2228.761719 2319.691406 2230.949219 2312.921875 2233.699219 2305.140625 L 2244.679688 2275.308594 L 2254.839844 2275.308594 L 2258.679688 2336.988281 L 2250.898438 2336.988281 L 2249.351562 2309.898438 "/>
<path fill-rule="nonzero" fill="rgb(6.266785%, 5.734253%, 5.047607%)" fill-opacity="1" d="M 2278.898438 2305.78125 C 2280.628906 2306.238281 2282.828125 2306.421875 2285.480469 2306.421875 C 2295.089844 2306.421875 2300.949219 2301.75 2300.949219 2293.238281 C 2300.949219 2285.101562 2295.179688 2281.171875 2286.398438 2281.171875 C 2282.921875 2281.171875 2280.269531 2281.441406 2278.898438 2281.808594 Z M 2270.929688 2276.039062 C 2274.78125 2275.398438 2279.808594 2274.851562 2286.21875 2274.851562 C 2294.089844 2274.851562 2299.851562 2276.679688 2303.511719 2279.980469 C 2306.898438 2282.898438 2308.910156 2287.390625 2308.910156 2292.878906 C 2308.910156 2298.460938 2307.261719 2302.851562 2304.148438 2306.058594 C 2299.941406 2310.539062 2293.078125 2312.828125 2285.300781 2312.828125 C 2282.921875 2312.828125 2280.730469 2312.738281 2278.898438 2312.28125 L 2278.898438 2336.988281 L 2270.929688 2336.988281 L 2270.929688 2276.039062 "/>
<path fill-rule="nonzero" fill="rgb(6.266785%, 5.734253%, 5.047607%)" fill-opacity="1" d="M 2342.128906 2311.359375 L 2336.089844 2293.609375 C 2334.710938 2289.578125 2333.800781 2285.921875 2332.878906 2282.359375 L 2332.699219 2282.359375 C 2331.78125 2286.019531 2330.78125 2289.769531 2329.589844 2293.519531 L 2323.550781 2311.359375 Z M 2321.898438 2317.589844 L 2315.5 2336.988281 L 2307.261719 2336.988281 L 2328.21875 2275.308594 L 2337.820312 2275.308594 L 2358.871094 2336.988281 L 2350.359375 2336.988281 L 2343.769531 2317.589844 L 2321.898438 2317.589844 "/>
<path fill-rule="nonzero" fill="rgb(6.266785%, 5.734253%, 5.047607%)" fill-opacity="1" d="M 2367.929688 2336.988281 L 2367.929688 2275.308594 L 2376.621094 2275.308594 L 2396.390625 2306.511719 C 2400.960938 2313.738281 2404.53125 2320.238281 2407.460938 2326.550781 L 2407.640625 2326.460938 C 2406.910156 2318.230469 2406.730469 2310.71875 2406.730469 2301.109375 L 2406.730469 2275.308594 L 2414.230469 2275.308594 L 2414.230469 2336.988281 L 2406.179688 2336.988281 L 2386.601562 2305.691406 C 2382.289062 2298.828125 2378.179688 2291.78125 2375.070312 2285.101562 L 2374.789062 2285.191406 C 2375.25 2292.96875 2375.429688 2300.378906 2375.429688 2310.628906 L 2375.429688 2336.988281 L 2367.929688 2336.988281 "/>
<path fill-rule="nonzero" fill="rgb(6.266785%, 5.734253%, 5.047607%)" fill-opacity="1" d="M 2441.21875 2336.988281 L 2441.21875 2310.808594 L 2421.730469 2275.308594 L 2430.789062 2275.308594 L 2439.480469 2292.328125 C 2441.859375 2297 2443.691406 2300.75 2445.621094 2305.050781 L 2445.800781 2305.050781 C 2447.539062 2301.019531 2449.640625 2297 2452.019531 2292.328125 L 2460.898438 2275.308594 L 2469.960938 2275.308594 L 2449.28125 2310.71875 L 2449.28125 2336.988281 L 2441.21875 2336.988281 "/>
<path fill-rule="nonzero" fill="rgb(6.266785%, 5.734253%, 5.047607%)" fill-opacity="1" d="M 2496.398438 2336.988281 L 2496.398438 2275.308594 L 2505.089844 2275.308594 L 2524.859375 2306.511719 C 2529.429688 2313.738281 2533 2320.238281 2535.929688 2326.550781 L 2536.109375 2326.460938 C 2535.378906 2318.230469 2535.199219 2310.71875 2535.199219 2301.109375 L 2535.199219 2275.308594 L 2542.699219 2275.308594 L 2542.699219 2336.988281 L 2534.648438 2336.988281 L 2515.058594 2305.691406 C 2510.761719 2298.828125 2506.640625 2291.78125 2503.53125 2285.101562 L 2503.261719 2285.191406 C 2503.71875 2292.96875 2503.898438 2300.378906 2503.898438 2310.628906 L 2503.898438 2336.988281 L 2496.398438 2336.988281 "/>
<path fill-rule="nonzero" fill="rgb(6.266785%, 5.734253%, 5.047607%)" fill-opacity="1" d="M 2586.800781 2311.359375 L 2580.761719 2293.609375 C 2579.390625 2289.578125 2578.480469 2285.921875 2577.558594 2282.359375 L 2577.378906 2282.359375 C 2576.460938 2286.019531 2575.460938 2289.769531 2574.269531 2293.519531 L 2568.230469 2311.359375 Z M 2566.578125 2317.589844 L 2560.171875 2336.988281 L 2551.941406 2336.988281 L 2572.890625 2275.308594 L 2582.5 2275.308594 L 2603.550781 2336.988281 L 2595.039062 2336.988281 L 2588.449219 2317.589844 L 2566.578125 2317.589844 "/>
<path fill-rule="nonzero" fill="rgb(6.266785%, 5.734253%, 5.047607%)" fill-opacity="1" d="M 2664.21875 2309.898438 C 2663.761719 2301.300781 2663.210938 2290.960938 2663.300781 2283.269531 L 2663.03125 2283.269531 C 2660.921875 2290.5 2658.359375 2298.191406 2655.25 2306.699219 L 2644.359375 2336.621094 L 2638.320312 2336.621094 L 2628.339844 2307.25 C 2625.421875 2298.550781 2622.941406 2290.589844 2621.210938 2283.269531 L 2621.019531 2283.269531 C 2620.839844 2290.960938 2620.378906 2301.300781 2619.828125 2310.539062 L 2618.191406 2336.988281 L 2610.589844 2336.988281 L 2614.890625 2275.308594 L 2625.050781 2275.308594 L 2635.570312 2305.140625 C 2638.140625 2312.738281 2640.238281 2319.511719 2641.800781 2325.910156 L 2642.070312 2325.910156 C 2643.628906 2319.691406 2645.820312 2312.921875 2648.570312 2305.140625 L 2659.550781 2275.308594 L 2669.710938 2275.308594 L 2673.550781 2336.988281 L 2665.769531 2336.988281 L 2664.21875 2309.898438 "/>
<path fill-rule="nonzero" fill="rgb(6.266785%, 5.734253%, 5.047607%)" fill-opacity="1" d="M 2717.738281 2308.070312 L 2693.769531 2308.070312 L 2693.769531 2330.308594 L 2720.488281 2330.308594 L 2720.488281 2336.988281 L 2685.808594 2336.988281 L 2685.808594 2275.308594 L 2719.121094 2275.308594 L 2719.121094 2281.988281 L 2693.769531 2281.988281 L 2693.769531 2301.480469 L 2717.738281 2301.480469 L 2717.738281 2308.070312 "/>
<path fill-rule="nonzero" fill="rgb(21.690369%, 14.152527%, 11.775208%)" fill-opacity="1" d="M 2406.300781 1446.148438 C 2406.300781 1359.691406 2492.769531 1270.179688 2479.058594 1209.621094 C 2477.46875 1202.589844 2479.941406 1195.121094 2485.96875 1191.171875 C 2491.550781 1187.511719 2495.808594 1188.878906 2498.941406 1194.558594 C 2500.890625 1198.089844 2501.46875 1202.191406 2501.078125 1206.199219 C 2494.261719 1275.960938 2429.050781 1352.101562 2406.300781 1452.121094 C 2406.320312 1446.828125 2269.589844 1237.75 2264.640625 1231.140625 C 2257.921875 1222.179688 2274.71875 1207.25 2284.789062 1226.101562 L 2406.300781 1446.148438 "/>
<path fill-rule="nonzero" fill="rgb(27.192688%, 15.023804%, 14.675903%)" fill-opacity="1" d="M 2380.699219 1501.261719 C 2290.609375 1248.039062 2138.871094 1067.011719 1933.230469 988.269531 C 1912.019531 980.148438 1889.878906 974.621094 1867.371094 971.570312 C 1656.441406 942.929688 1563.109375 975.308594 1666.171875 1113.671875 C 1664.691406 1174.320312 1709.070312 1161.011719 1704.628906 1186.160156 C 1718.308594 1208.808594 1717.828125 1225.441406 1707.589844 1237.941406 C 1732.921875 1265.5 1736.839844 1293.121094 1726.820312 1320.78125 C 1714.871094 1337.710938 1724.5 1358.109375 1743.101562 1379.949219 C 1727.898438 1638.960938 2036.011719 1473.148438 2380.699219 1534.230469 L 2380.699219 1501.261719 "/>
<path fill-rule="nonzero" fill="rgb(27.192688%, 15.023804%, 14.675903%)" fill-opacity="1" d="M 2397.449219 1519.921875 C 2132.328125 1501.609375 1897.011719 1506.160156 1817.058594 1629.980469 C 1834.820312 1665.46875 1783.039062 1695.058594 1817.058594 1709.851562 C 1830.378906 1748.308594 1786 1780.859375 1837.78125 1813.398438 C 1852.570312 1841.511719 1822.980469 1881.449219 1870.320312 1893.289062 L 1876.238281 1968.738281 C 1909.589844 1978.011719 1937.480469 2000.480469 1951.691406 2056.019531 C 1986.679688 2031.121094 2025.058594 2048.539062 2065.601562 2093 C 2323 2007.199219 2365.898438 1772.949219 2397.449219 1519.921875 "/>
<g clip-path="url(#clip-0)">
<g clip-path="url(#clip-1)">
<g clip-path="url(#clip-2)">
<path fill-rule="nonzero" fill="url(#linear-pattern-0)" d="M 2817.808594 1875.8125 L 2258.390625 693.046875 L 1242.683594 1173.449219 L 1802.097656 2356.214844 Z M 2817.808594 1875.8125 "/>
</g>
</g>
</g>
<path fill-rule="nonzero" fill="rgb(96.131897%, 96.276855%, 96.270752%)" fill-opacity="1" d="M 1971.289062 1036.378906 C 1970.078125 1040.28125 1983.019531 1047.75 2000.191406 1053.070312 C 2017.359375 1058.390625 2032.261719 1059.53125 2033.46875 1055.628906 C 2034.679688 1051.730469 2021.738281 1044.261719 2004.570312 1038.941406 C 1987.398438 1033.621094 1972.5 1032.480469 1971.289062 1036.378906 "/>
<path fill-rule="nonzero" fill="rgb(96.131897%, 96.276855%, 96.270752%)" fill-opacity="1" d="M 2309.019531 1789.589844 C 2312.898438 1790.859375 2320.589844 1778.050781 2326.199219 1760.96875 C 2331.800781 1743.898438 2333.199219 1729.019531 2329.320312 1727.75 C 2325.441406 1726.46875 2317.75 1739.28125 2312.140625 1756.359375 C 2306.539062 1773.441406 2305.140625 1788.320312 2309.019531 1789.589844 "/>
<path fill-rule="nonzero" fill="rgb(27.192688%, 15.023804%, 14.675903%)" fill-opacity="1" d="M 2419.300781 1501.261719 C 2509.390625 1248.039062 2661.128906 1067.011719 2866.769531 988.269531 C 2887.980469 980.148438 2910.128906 974.621094 2932.628906 971.570312 C 3143.558594 942.929688 3236.890625 975.308594 3133.828125 1113.671875 C 3135.308594 1174.320312 3090.929688 1161.011719 3095.371094 1186.160156 C 3081.691406 1208.808594 3082.171875 1225.441406 3092.410156 1237.941406 C 3067.078125 1265.5 3063.160156 1293.121094 3073.179688 1320.78125 C 3085.128906 1337.710938 3075.5 1358.109375 3056.898438 1379.949219 C 3072.101562 1638.960938 2763.988281 1473.148438 2419.300781 1534.230469 L 2419.300781 1501.261719 "/>
<path fill-rule="nonzero" fill="rgb(27.192688%, 15.023804%, 14.675903%)" fill-opacity="1" d="M 2402.550781 1519.921875 C 2667.671875 1501.609375 2902.988281 1506.160156 2982.941406 1629.980469 C 2965.179688 1665.46875 3016.960938 1695.058594 2982.941406 1709.851562 C 2969.621094 1748.308594 3014 1780.859375 2962.21875 1813.398438 C 2947.429688 1841.511719 2977.019531 1881.449219 2929.679688 1893.289062 L 2923.761719 1968.738281 C 2890.410156 1978.011719 2862.519531 2000.480469 2848.308594 2056.019531 C 2813.320312 2031.121094 2774.941406 2048.539062 2734.398438 2093 C 2477 2007.199219 2434.101562 1772.949219 2402.550781 1519.921875 "/>
<g clip-path="url(#clip-3)">
<g clip-path="url(#clip-4)">
<g clip-path="url(#clip-5)">
<path fill-rule="nonzero" fill="url(#linear-pattern-1)" d="M 2410.121094 971.050781 L 2410.121094 2078.210938 L 3129.390625 2078.210938 L 3129.390625 971.050781 Z M 2410.121094 971.050781 "/>
</g>
</g>
</g>
<path fill-rule="nonzero" fill="rgb(96.131897%, 96.276855%, 96.270752%)" fill-opacity="1" d="M 2828.710938 1036.378906 C 2829.921875 1040.28125 2816.980469 1047.75 2799.808594 1053.070312 C 2782.640625 1058.390625 2767.738281 1059.53125 2766.53125 1055.628906 C 2765.320312 1051.730469 2778.261719 1044.261719 2795.429688 1038.941406 C 2812.601562 1033.621094 2827.5 1032.480469 2828.710938 1036.378906 "/>
<path fill-rule="nonzero" fill="rgb(96.131897%, 96.276855%, 96.270752%)" fill-opacity="1" d="M 3071.699219 1022.828125 C 3071.699219 1026.910156 3057.128906 1030.230469 3039.148438 1030.230469 C 3021.179688 1030.230469 3006.601562 1026.910156 3006.601562 1022.828125 C 3006.601562 1018.738281 3021.179688 1015.429688 3039.148438 1015.429688 C 3057.128906 1015.429688 3071.699219 1018.738281 3071.699219 1022.828125 "/>
<path fill-rule="nonzero" fill="rgb(27.192688%, 15.023804%, 14.675903%)" fill-opacity="1" d="M 2380.308594 1449.480469 C 2325.570312 1405.101562 2454.269531 1388.828125 2418.769531 1449.480469 C 2436.519531 1499.78125 2412.851562 1534.230469 2425.058594 1600.378906 C 2413.699219 1632.589844 2401.808594 1637.371094 2389.488281 1620.269531 C 2382.511719 1610.589844 2379.429688 1598.710938 2379.679688 1586.78125 C 2380.761719 1536.628906 2360.53125 1487.230469 2380.308594 1449.480469 "/>
<path fill-rule="nonzero" fill="rgb(96.131897%, 96.276855%, 96.270752%)" fill-opacity="1" d="M 1728.300781 1022.828125 C 1728.300781 1026.910156 1742.871094 1030.230469 1760.851562 1030.230469 C 1778.820312 1030.230469 1793.398438 1026.910156 1793.398438 1022.828125 C 1793.398438 1018.738281 1778.820312 1015.429688 1760.851562 1015.429688 C 1742.871094 1015.429688 1728.300781 1018.738281 1728.300781 1022.828125 "/>
<path fill-rule="nonzero" fill="rgb(96.131897%, 96.276855%, 96.270752%)" fill-opacity="1" d="M 2483.71875 1789.589844 C 2479.839844 1790.859375 2472.148438 1778.050781 2466.539062 1760.96875 C 2460.941406 1743.898438 2459.539062 1729.019531 2463.421875 1727.75 C 2467.308594 1726.46875 2475 1739.28125 2480.601562 1756.359375 C 2486.199219 1773.441406 2487.601562 1788.320312 2483.71875 1789.589844 "/>
</svg>
