<?xml version="1.0" encoding="UTF-8"?>
<svg xmlns="http://www.w3.org/2000/svg" xmlns:xlink="http://www.w3.org/1999/xlink" width="4500" height="3375" viewBox="0 0 4500 3375">

<path fill-rule="nonzero" fill="rgb(0%, 0%, 0%)" fill-opacity="1" d="M 2240.109375 505.140625 C 2231.871094 516.441406 2223.839844 529.269531 2216.019531 543.621094 C 2215.390625 544.761719 2214.769531 545.910156 2214.148438 547.070312 C 2199.488281 579.28125 2192.039062 607.628906 2191.808594 632.128906 C 2191.199219 651.039062 2194.511719 670.570312 2201.730469 690.730469 C 2217.800781 681.050781 2228.039062 675.570312 2232.460938 674.308594 C 2235.21875 673.238281 2237.769531 672.378906 2240.109375 671.730469 L 2240.121094 671.730469 C 2242.460938 672.378906 2245.011719 673.238281 2247.769531 674.308594 C 2252.191406 675.570312 2262.429688 681.050781 2278.511719 690.730469 C 2285.730469 670.570312 2289.03125 651.039062 2288.429688 632.128906 C 2288.191406 607.628906 2280.738281 579.28125 2266.078125 547.070312 C 2265.460938 545.910156 2264.839844 544.761719 2264.21875 543.609375 L 2264.210938 543.609375 C 2256.390625 529.261719 2248.359375 516.441406 2240.121094 505.140625 Z M 2327.460938 528.96875 C 2316.878906 529.679688 2309.769531 531.289062 2306.140625 533.800781 C 2300.980469 536.371094 2296.25 539.980469 2291.941406 544.609375 L 2304.128906 567.539062 C 2306.199219 571.738281 2307.980469 576.070312 2309.449219 580.539062 C 2312.390625 589.480469 2314.109375 598.941406 2314.628906 608.941406 C 2314.808594 626.351562 2313.851562 638.761719 2311.75 646.171875 C 2310.101562 652.28125 2308.398438 657.238281 2306.671875 661.050781 C 2303.890625 667.488281 2300.5 673.53125 2296.488281 679.160156 C 2296.101562 680.050781 2296.019531 681.191406 2296.238281 682.601562 C 2296.300781 683.269531 2299.75 686.429688 2306.589844 692.070312 L 2380.519531 752.460938 C 2380.550781 752.46875 2380.578125 752.46875 2380.609375 752.46875 C 2380.910156 752.46875 2380.980469 752.160156 2380.820312 751.558594 C 2376.820312 742.421875 2373.378906 733.398438 2370.5 724.5 C 2368.480469 718.179688 2366.910156 712.679688 2365.789062 708.019531 C 2363.699219 700.371094 2363.050781 690.558594 2363.839844 678.570312 C 2364.269531 674.789062 2364.988281 671.25 2366 667.960938 C 2366.839844 665.199219 2368.308594 661.621094 2370.390625 657.199219 C 2374.589844 650.371094 2381.738281 640.058594 2391.851562 626.261719 L 2394.96875 619.789062 C 2396.910156 614.871094 2397.808594 611.25 2397.679688 608.921875 C 2398.238281 603.019531 2397.980469 597.390625 2396.890625 592.019531 C 2395.808594 586.640625 2393.898438 581.519531 2391.160156 576.660156 C 2384.390625 565.691406 2377.148438 556.519531 2369.460938 549.148438 C 2361.769531 541.78125 2353.621094 536.21875 2345.011719 532.449219 L 2338.46875 529.96875 C 2335.089844 529.378906 2331.808594 529.050781 2328.640625 528.980469 Z M 2152.769531 528.96875 L 2151.589844 528.980469 C 2148.421875 529.050781 2145.148438 529.378906 2141.769531 529.96875 L 2135.21875 532.449219 C 2126.609375 536.21875 2118.46875 541.78125 2110.769531 549.148438 C 2103.078125 556.519531 2095.851562 565.691406 2089.070312 576.660156 C 2086.339844 581.519531 2084.429688 586.640625 2083.339844 592.019531 C 2082.25 597.390625 2081.988281 603.019531 2082.558594 608.921875 C 2082.421875 611.25 2083.320312 614.871094 2085.269531 619.789062 L 2088.378906 626.261719 C 2098.488281 640.058594 2105.640625 650.371094 2109.839844 657.199219 C 2111.929688 661.621094 2113.390625 665.199219 2114.230469 667.960938 C 2115.238281 671.25 2115.96875 674.789062 2116.398438 678.570312 C 2117.191406 690.558594 2116.539062 700.371094 2114.449219 708.019531 C 2113.328125 712.679688 2111.75 718.179688 2109.730469 724.5 C 2106.851562 733.398438 2103.410156 742.421875 2099.421875 751.558594 C 2099.261719 752.160156 2099.328125 752.46875 2099.628906 752.46875 C 2099.648438 752.46875 2099.679688 752.46875 2099.71875 752.460938 L 2173.648438 692.070312 C 2180.480469 686.429688 2183.929688 683.28125 2183.988281 682.601562 C 2184.210938 681.191406 2184.128906 680.050781 2183.75 679.160156 C 2179.730469 673.53125 2176.339844 667.488281 2173.558594 661.050781 C 2171.828125 657.238281 2170.140625 652.28125 2168.480469 646.171875 C 2166.378906 638.761719 2165.429688 626.351562 2165.609375 608.941406 C 2166.121094 598.941406 2167.851562 589.480469 2170.789062 580.539062 C 2172.261719 576.070312 2174.03125 571.738281 2176.109375 567.539062 L 2188.300781 544.609375 C 2183.988281 539.980469 2179.25 536.371094 2174.101562 533.800781 C 2170.46875 531.289062 2163.359375 529.679688 2152.769531 528.96875 Z M 2240.121094 793.449219 L 2270.511719 827.171875 C 2266.058594 840.148438 2261.070312 852.480469 2255.539062 864.160156 C 2248.390625 878.480469 2243.941406 886.871094 2242.179688 889.339844 L 2240.121094 892.578125 L 2238.050781 889.339844 C 2236.300781 886.871094 2231.839844 878.480469 2224.691406 864.160156 C 2219.160156 852.480469 2214.171875 840.148438 2209.730469 827.171875 Z M 3555.429688 580.421875 C 3526.730469 580.921875 3510.410156 583.070312 3506.46875 586.859375 L 3730.070312 624.769531 C 3763.140625 631.71875 3796.050781 641.921875 3828.800781 655.359375 C 3907.679688 688.730469 3975.640625 726.46875 4032.660156 768.570312 C 4034.511719 784.730469 4029.21875 801.929688 4016.800781 820.140625 C 4004.859375 840.480469 3986.761719 866.078125 3962.488281 896.949219 C 4006.898438 890.109375 4062.878906 862.820312 4130.429688 815.078125 L 4157.210938 794.941406 C 4159.550781 793.710938 4152.101562 786.640625 4134.878906 773.738281 C 4092.441406 739.910156 4053.71875 713.558594 4018.71875 694.679688 C 3999.941406 684.171875 3980.808594 674.460938 3961.339844 665.570312 C 3912.039062 644.730469 3882.050781 633.179688 3871.351562 630.941406 C 3778.519531 601.480469 3675.070312 584.648438 3560.980469 580.449219 Z M 924.804688 580.421875 L 919.25 580.449219 C 805.167969 584.648438 701.710938 601.480469 608.882812 630.941406 C 598.1875 633.179688 568.191406 644.730469 518.894531 665.570312 C 499.421875 674.460938 480.292969 684.171875 461.515625 694.679688 C 426.515625 713.558594 387.796875 739.910156 345.355469 773.738281 C 328.128906 786.640625 320.6875 793.710938 323.023438 794.941406 L 349.800781 815.078125 C 417.355469 862.820312 473.335938 890.109375 517.738281 896.949219 C 493.472656 866.078125 475.367188 840.480469 463.433594 820.140625 C 451.011719 801.929688 445.722656 784.730469 447.570312 768.570312 C 504.59375 726.46875 572.550781 688.730469 651.433594 655.359375 C 684.179688 641.921875 717.089844 631.71875 750.160156 624.769531 L 973.769531 586.859375 C 969.824219 583.070312 953.5 580.921875 924.804688 580.421875 Z M 2240.121094 908.578125 L 2240.109375 908.578125 C 2240.121094 908.578125 2240.121094 908.578125 2240.121094 908.578125 Z M 1015.570312 664.730469 C 860.933594 664.730469 700.578125 694.109375 534.492188 752.890625 C 648.742188 725.519531 770.722656 708.621094 900.4375 702.191406 C 933.699219 701.03125 966.765625 700.449219 999.644531 700.449219 C 1108.96875 700.449219 1216.191406 706.859375 1321.28125 719.679688 C 1602.878906 759.308594 1836.101562 832.300781 2020.949219 938.660156 C 1924.070312 855.839844 1787.980469 790.300781 1612.679688 742.058594 C 1508.679688 714.121094 1410.550781 694.519531 1318.28125 683.269531 C 1225.019531 671.5 1129.210938 665.320312 1030.871094 664.730469 L 1022.75 664.75 C 1020.359375 664.730469 1017.96875 664.730469 1015.570312 664.730469 Z M 3464.671875 664.730469 C 3462.269531 664.730469 3459.878906 664.730469 3457.480469 664.75 L 3449.359375 664.730469 C 3351.019531 665.320312 3255.21875 671.5 3161.949219 683.269531 C 3069.679688 694.519531 2971.550781 714.121094 2867.550781 742.058594 C 2692.25 790.300781 2556.160156 855.839844 2459.289062 938.660156 C 2644.140625 832.300781 2877.359375 759.308594 3158.949219 719.679688 C 3264.050781 706.859375 3371.261719 700.449219 3480.589844 700.449219 C 3513.46875 700.449219 3546.53125 701.03125 3579.800781 702.191406 C 3709.511719 708.621094 3831.488281 725.519531 3945.738281 752.890625 C 3779.660156 694.109375 3619.300781 664.730469 3464.671875 664.730469 Z M 3216.460938 779.359375 C 3195.210938 779.441406 3177.621094 779.769531 3163.699219 780.359375 L 3097.488281 786.25 L 3032.679688 795.390625 L 2969.269531 807.800781 L 2907.269531 823.460938 L 2846.660156 842.398438 L 2787.441406 864.589844 L 2729.628906 890.050781 C 2691.558594 908.109375 2654.410156 928.339844 2618.199219 950.75 L 2813.261719 887.871094 L 2845.289062 876.769531 C 2866.429688 869.808594 2887.121094 863.710938 2907.359375 858.480469 C 2927.609375 853.261719 2947.410156 848.910156 2966.769531 845.429688 L 2995.46875 840.859375 C 3014.390625 838.238281 3032.859375 836.5 3050.878906 835.628906 C 3060.601562 835.148438 3070.011719 834.910156 3079.089844 834.910156 C 3123.589844 834.910156 3160.511719 840.691406 3189.839844 852.261719 C 3203.78125 859.480469 3211.25 864.539062 3212.261719 867.429688 C 3207.671875 866.359375 3203.179688 865.828125 3198.800781 865.828125 C 3186.890625 865.828125 3175.75 869.769531 3165.378906 877.660156 C 3151.488281 887.21875 3148.230469 898.320312 3155.589844 910.960938 C 3166.160156 920.539062 3180.460938 925.339844 3198.488281 925.339844 C 3210.589844 925.339844 3224.359375 923.179688 3239.820312 918.871094 C 3254.050781 914.101562 3268.921875 908.160156 3284.429688 901.058594 C 3342.429688 866.808594 3383.628906 845.078125 3408.011719 835.859375 C 3421.910156 830.359375 3440.128906 825.871094 3462.660156 822.421875 C 3468.371094 821.519531 3477.03125 820.601562 3488.660156 819.648438 C 3494.449219 819.210938 3500.378906 818.980469 3506.441406 818.980469 C 3510.011719 818.980469 3513.621094 819.058594 3517.28125 819.210938 C 3519.320312 818.988281 3520.359375 818.640625 3520.378906 818.179688 C 3492.738281 809.019531 3451.980469 800.328125 3398.101562 792.089844 C 3341.671875 784.359375 3286.699219 780.148438 3233.199219 779.460938 Z M 1263.78125 779.359375 L 1247.039062 779.46875 C 1193.53125 780.148438 1138.558594 784.359375 1082.128906 792.089844 C 1028.25 800.328125 987.488281 809.019531 959.859375 818.179688 C 959.875 818.640625 960.90625 818.988281 962.957031 819.210938 C 966.613281 819.058594 970.226562 818.980469 973.792969 818.980469 C 979.851562 818.980469 985.78125 819.210938 991.578125 819.648438 C 1003.199219 820.601562 1011.859375 821.519531 1017.570312 822.421875 C 1040.109375 825.871094 1058.328125 830.359375 1072.230469 835.859375 C 1096.609375 845.078125 1137.800781 866.808594 1195.808594 901.058594 C 1211.320312 908.160156 1226.191406 914.101562 1240.421875 918.871094 C 1255.871094 923.179688 1269.640625 925.339844 1281.738281 925.339844 C 1299.78125 925.339844 1314.078125 920.539062 1324.640625 910.960938 C 1332 898.320312 1328.738281 887.21875 1314.851562 877.660156 C 1304.480469 869.769531 1293.339844 865.828125 1281.441406 865.828125 C 1277.058594 865.828125 1272.570312 866.359375 1267.980469 867.429688 L 1267.96875 867.429688 C 1268.980469 864.539062 1276.460938 859.488281 1290.390625 852.261719 C 1319.730469 840.691406 1356.640625 834.910156 1401.140625 834.910156 C 1410.230469 834.910156 1419.628906 835.148438 1429.351562 835.628906 C 1447.378906 836.5 1465.851562 838.238281 1484.761719 840.859375 L 1513.460938 845.429688 C 1532.820312 848.910156 1552.628906 853.261719 1572.871094 858.480469 C 1593.121094 863.710938 1613.808594 869.808594 1634.941406 876.769531 L 1666.96875 887.871094 L 1862.03125 950.75 C 1825.820312 928.339844 1788.679688 908.109375 1750.601562 890.050781 L 1692.789062 864.589844 L 1633.578125 842.398438 L 1572.96875 823.460938 L 1510.960938 807.800781 L 1447.550781 795.390625 L 1382.738281 786.25 L 1316.539062 780.359375 C 1302.609375 779.769531 1285.019531 779.441406 1263.78125 779.359375 Z M 2240.109375 693.941406 C 2234.179688 700.570312 2228.480469 707.179688 2223.011719 713.78125 C 2192.160156 751 2168.578125 787.921875 2152.25 824.558594 C 2151.421875 826.488281 2151.148438 827.679688 2151.449219 828.109375 C 2164.660156 833.28125 2175 842.710938 2182.449219 856.390625 C 2184.890625 859.710938 2187.03125 866.699219 2188.871094 877.339844 C 2189.621094 883.648438 2189.589844 890.53125 2188.800781 898 C 2187.640625 903.828125 2185.769531 909.328125 2183.21875 914.519531 L 2178.851562 922.039062 C 2175.589844 926.898438 2171.628906 931.441406 2166.980469 935.648438 C 2157.671875 944.070312 2145.570312 951.210938 2130.671875 957.050781 C 2133.96875 966.570312 2137.769531 975.460938 2142.070312 983.71875 L 2148.878906 995.648438 C 2153.671875 1003.289062 2158.960938 1010.308594 2164.738281 1016.691406 C 2176.308594 1029.480469 2189.859375 1039.75 2205.398438 1047.53125 C 2198.46875 1035.460938 2193.699219 1023.390625 2191.109375 1011.308594 C 2189.808594 1005.269531 2189.050781 999.230469 2188.839844 993.179688 L 2188.929688 984.109375 C 2189.261719 978.070312 2190.128906 972.019531 2191.539062 965.960938 C 2193.328125 959.730469 2195.648438 953.878906 2198.5 948.410156 C 2201.351562 942.941406 2204.730469 937.851562 2208.648438 933.128906 L 2214.921875 926.351562 C 2221.980469 919.46875 2230.378906 913.550781 2240.109375 908.589844 L 2240.121094 908.589844 C 2249.859375 913.550781 2258.25 919.46875 2265.308594 926.351562 L 2271.578125 933.128906 C 2275.5 937.851562 2278.878906 942.941406 2281.730469 948.410156 C 2284.578125 953.878906 2286.898438 959.730469 2288.691406 965.960938 C 2290.109375 972.019531 2290.980469 978.070312 2291.308594 984.109375 L 2291.390625 993.179688 C 2291.179688 999.230469 2290.429688 1005.269531 2289.128906 1011.308594 C 2286.539062 1023.390625 2281.769531 1035.460938 2274.828125 1047.53125 C 2290.371094 1039.75 2303.921875 1029.480469 2315.488281 1016.691406 C 2321.269531 1010.308594 2326.558594 1003.289062 2331.351562 995.648438 L 2338.171875 983.71875 C 2342.460938 975.460938 2346.261719 966.570312 2349.558594 957.050781 C 2334.671875 951.210938 2322.558594 944.070312 2313.25 935.648438 C 2308.601562 931.441406 2304.640625 926.898438 2301.378906 922.039062 L 2297.019531 914.519531 C 2294.460938 909.328125 2292.601562 903.828125 2291.429688 898 C 2290.640625 890.53125 2290.621094 883.648438 2291.359375 877.339844 C 2293.199219 866.699219 2295.339844 859.710938 2297.789062 856.390625 C 2305.238281 842.710938 2315.570312 833.28125 2328.789062 828.109375 C 2329.078125 827.679688 2328.820312 826.488281 2327.980469 824.558594 C 2311.660156 787.921875 2288.070312 750.988281 2257.21875 713.78125 C 2251.75 707.179688 2246.050781 700.570312 2240.121094 693.941406 Z M 718.542969 758.871094 L 769.515625 804.238281 L 821.304688 845.75 C 856.101562 872.140625 891.433594 895.941406 927.304688 917.171875 C 963.171875 938.390625 999.578125 957.03125 1036.519531 973.101562 C 1073.460938 989.160156 1110.941406 1002.640625 1148.960938 1013.539062 L 1206.390625 1027.960938 C 1216.800781 1030.640625 1244.160156 1035.898438 1288.449219 1043.730469 C 1340.238281 1052.140625 1386.191406 1056.339844 1426.308594 1056.339844 C 1427.898438 1056.359375 1429.5 1056.371094 1431.089844 1056.371094 C 1463.390625 1056.371094 1496.308594 1052.449219 1529.859375 1044.621094 C 1546.621094 1040.808594 1562.691406 1036.210938 1578.089844 1030.839844 L 1600.679688 1022.191406 C 1615.410156 1016.03125 1629.449219 1009.101562 1642.820312 1001.378906 C 1656.191406 993.660156 1668.878906 985.171875 1680.890625 975.890625 L 1698.050781 954.03125 C 1615.980469 976.558594 1546.429688 989.070312 1489.410156 991.570312 C 1479.25 992.089844 1467.660156 992.339844 1454.640625 992.339844 C 1435.050781 992.339844 1412.230469 991.761719 1386.191406 990.609375 C 1348.019531 988.359375 1311.269531 983.871094 1275.929688 977.140625 C 1205.269531 961.601562 1129.320312 938.589844 1048.070312 908.121094 C 1007.441406 892.878906 965.488281 875.78125 922.214844 856.808594 C 902.238281 849.660156 834.351562 817.011719 718.554688 758.871094 Z M 3761.660156 758.871094 C 3645.878906 817.011719 3578 849.660156 3558.019531 856.808594 C 3514.75 875.78125 3472.789062 892.878906 3432.171875 908.121094 C 3350.910156 938.589844 3274.960938 961.601562 3204.300781 977.140625 C 3168.960938 983.871094 3132.210938 988.359375 3094.039062 990.609375 C 3068 991.761719 3045.179688 992.339844 3025.589844 992.339844 C 3012.578125 992.339844 3000.988281 992.089844 2990.820312 991.570312 C 2933.800781 989.070312 2864.261719 976.558594 2782.199219 954.03125 L 2782.179688 954.03125 L 2799.339844 975.890625 C 2811.351562 985.171875 2824.039062 993.660156 2837.410156 1001.378906 C 2850.78125 1009.101562 2864.828125 1016.03125 2879.550781 1022.191406 L 2902.140625 1030.839844 C 2917.539062 1036.210938 2933.621094 1040.808594 2950.371094 1044.621094 C 2983.921875 1052.449219 3016.839844 1056.371094 3049.140625 1056.371094 C 3050.738281 1056.371094 3052.328125 1056.359375 3053.929688 1056.339844 C 3094.039062 1056.339844 3139.988281 1052.140625 3191.78125 1043.730469 C 3236.078125 1035.898438 3263.429688 1030.640625 3273.851562 1027.960938 L 3331.269531 1013.539062 C 3369.289062 1002.640625 3406.769531 989.160156 3443.710938 973.101562 C 3480.660156 957.03125 3517.058594 938.390625 3552.929688 917.171875 C 3588.800781 895.941406 3624.128906 872.140625 3658.929688 845.75 L 3710.71875 804.238281 L 3761.679688 758.871094 Z M 556.902344 800.589844 L 565.136719 820.078125 C 599.109375 863.328125 638.621094 900.988281 683.675781 933.070312 L 718.507812 956.089844 C 742.417969 970.730469 767.71875 983.980469 794.402344 995.828125 C 821.085938 1007.679688 849.15625 1018.140625 878.609375 1027.191406 C 954.957031 1051.230469 1031.058594 1067.261719 1106.921875 1075.269531 C 1148.449219 1079.289062 1188.03125 1081.289062 1225.660156 1081.289062 C 1259.878906 1081.289062 1292.480469 1079.628906 1323.46875 1076.320312 L 1212.761719 1055.039062 L 1108.429688 1031.429688 L 1010.488281 1005.46875 L 918.929688 977.179688 L 833.753906 946.539062 L 754.96875 913.558594 L 682.5625 878.25 L 616.546875 840.589844 Z M 3923.328125 800.589844 L 3863.691406 840.589844 L 3797.671875 878.25 L 3725.269531 913.558594 L 3646.480469 946.539062 L 3561.308594 977.179688 L 3469.75 1005.46875 L 3371.808594 1031.429688 L 3267.46875 1055.039062 L 3156.761719 1076.320312 C 3187.75 1079.628906 3220.359375 1081.289062 3254.570312 1081.289062 C 3292.199219 1081.289062 3331.78125 1079.289062 3373.320312 1075.269531 C 3449.179688 1067.261719 3525.28125 1051.230469 3601.628906 1027.191406 C 3631.078125 1018.140625 3659.148438 1007.679688 3685.828125 995.828125 C 3712.519531 983.980469 3737.808594 970.730469 3761.730469 956.089844 L 3796.558594 933.070312 C 3841.609375 900.988281 3881.128906 863.328125 3915.089844 820.078125 Z M 2175.671875 711.050781 L 2166.121094 716.609375 C 2140.398438 734.089844 2112.570312 772.96875 2082.621094 833.230469 C 2067.710938 867.199219 2057.761719 903.308594 2052.789062 941.53125 L 2050.71875 960.820312 C 2049.621094 973.808594 2049.070312 987.019531 2049.070312 1000.46875 C 2049.019531 1006.308594 2049.75 1020.011719 2051.261719 1041.570312 C 2052.671875 1057.929688 2054.648438 1071.75 2057.210938 1083.03125 C 2061.570312 1100.390625 2070.179688 1122.96875 2083.03125 1150.800781 C 2094.839844 1173.898438 2103.910156 1187.160156 2110.210938 1190.578125 C 2112.679688 1179.460938 2117.320312 1169.308594 2124.109375 1160.121094 C 2147.078125 1135.628906 2162.898438 1116.421875 2171.578125 1102.480469 C 2174.46875 1097.839844 2176.570312 1093.78125 2177.871094 1090.308594 L 2190.320312 1054.851562 C 2190.429688 1053.480469 2190.351562 1052.71875 2190.070312 1052.570312 C 2182.679688 1061.011719 2175.699219 1067.570312 2169.128906 1072.261719 C 2167.359375 1074.019531 2162.671875 1076.46875 2155.058594 1079.640625 C 2151.769531 1080.429688 2148.71875 1080.820312 2145.890625 1080.820312 C 2139.378906 1080.820312 2134.089844 1078.71875 2130.03125 1074.519531 C 2112.328125 1057.199219 2102.089844 1021.398438 2099.308594 967.109375 C 2099.128906 960.539062 2099.210938 954.28125 2099.570312 948.351562 C 2099.269531 946.691406 2100.558594 936.789062 2103.410156 918.660156 C 2107.441406 893.589844 2112.199219 871.941406 2117.671875 853.75 C 2119.5 847.679688 2121.398438 842 2123.390625 836.699219 Z M 2304.570312 711.050781 L 2356.851562 836.699219 C 2358.828125 842 2360.738281 847.679688 2362.558594 853.75 C 2368.039062 871.941406 2372.789062 893.589844 2376.820312 918.660156 C 2379.679688 936.789062 2380.960938 946.691406 2380.671875 948.351562 C 2381.019531 954.28125 2381.109375 960.539062 2380.921875 967.109375 C 2378.140625 1021.398438 2367.910156 1057.199219 2350.199219 1074.519531 C 2346.140625 1078.71875 2340.851562 1080.820312 2334.339844 1080.820312 C 2331.519531 1080.820312 2328.460938 1080.429688 2325.179688 1079.640625 C 2317.570312 1076.46875 2312.878906 1074.019531 2311.109375 1072.261719 C 2304.539062 1067.570312 2297.558594 1061.011719 2290.160156 1052.570312 C 2289.878906 1052.71875 2289.800781 1053.480469 2289.910156 1054.851562 L 2302.359375 1090.308594 C 2303.660156 1093.78125 2305.769531 1097.839844 2308.660156 1102.480469 C 2317.328125 1116.421875 2333.160156 1135.628906 2356.128906 1160.121094 C 2362.910156 1169.308594 2367.550781 1179.460938 2370.019531 1190.578125 C 2376.328125 1187.160156 2385.390625 1173.898438 2397.199219 1150.800781 C 2410.058594 1122.96875 2418.660156 1100.390625 2423.03125 1083.03125 C 2425.589844 1071.75 2427.570312 1057.929688 2428.96875 1041.570312 C 2430.480469 1020.011719 2431.210938 1006.308594 2431.160156 1000.46875 C 2431.171875 987.019531 2430.609375 973.808594 2429.511719 960.820312 L 2427.441406 941.53125 C 2422.46875 903.308594 2412.53125 867.199219 2397.609375 833.230469 C 2367.660156 772.96875 2339.828125 734.089844 2314.109375 716.609375 Z M 1827.988281 1130.570312 L 1819.359375 1131.039062 C 1819.109375 1131.019531 1818.828125 1131.019531 1818.519531 1131.019531 C 1810.960938 1131.019531 1785.289062 1136.511719 1741.5 1147.488281 C 1678.519531 1164.769531 1642.199219 1175.691406 1632.550781 1180.230469 C 1609.21875 1189.25 1585.210938 1200.820312 1560.519531 1214.960938 C 1529.359375 1233.75 1510.460938 1245.800781 1503.820312 1251.089844 L 1487.191406 1265.140625 C 1501.539062 1255.300781 1517.601562 1248.679688 1535.359375 1245.269531 C 1545.589844 1243.070312 1554.570312 1241.96875 1562.308594 1241.96875 C 1572.351562 1241.96875 1580.28125 1243.828125 1586.101562 1247.539062 C 1588.660156 1250.058594 1590.359375 1252.929688 1591.191406 1256.160156 C 1591.738281 1264.828125 1591.03125 1270.460938 1589.058594 1273.039062 C 1585.511719 1281.601562 1578.480469 1291.570312 1567.988281 1302.941406 C 1563.960938 1306.808594 1559.550781 1310.410156 1554.75 1313.761719 C 1542.089844 1321.671875 1534.03125 1326.101562 1530.570312 1327.058594 C 1519.851562 1331.808594 1505.25 1336.269531 1486.800781 1340.421875 C 1483.179688 1341.578125 1476.609375 1342.160156 1467.101562 1342.160156 C 1453.308594 1342.160156 1433.308594 1340.941406 1407.121094 1338.5 L 1407.109375 1338.5 C 1438.808594 1349.019531 1458.640625 1354.539062 1466.640625 1355.039062 C 1466.820312 1355.609375 1469.898438 1355.898438 1475.871094 1355.898438 C 1482.378906 1355.898438 1492.308594 1355.558594 1505.671875 1354.878906 C 1542.070312 1350.921875 1569.679688 1341.878906 1588.519531 1327.761719 C 1598.640625 1320.03125 1605.859375 1313.640625 1610.171875 1308.578125 C 1644.628906 1259.519531 1670.910156 1227.230469 1689.039062 1211.730469 C 1705.371094 1198.628906 1723.628906 1186.75 1743.808594 1176.089844 C 1756.488281 1169.539062 1769.011719 1164.300781 1781.359375 1160.351562 L 1837.441406 1131.96875 C 1836.121094 1131.148438 1832.96875 1130.679688 1827.988281 1130.570312 Z M 2652.238281 1130.570312 C 2647.261719 1130.679688 2644.109375 1131.148438 2642.800781 1131.96875 L 2698.871094 1160.351562 C 2711.21875 1164.300781 2723.738281 1169.539062 2736.429688 1176.089844 C 2756.609375 1186.75 2774.859375 1198.628906 2791.199219 1211.730469 C 2809.320312 1227.230469 2835.609375 1259.519531 2870.070312 1308.578125 C 2874.378906 1313.640625 2881.589844 1320.03125 2891.71875 1327.761719 C 2910.550781 1341.878906 2938.160156 1350.921875 2974.558594 1354.878906 C 2987.929688 1355.558594 2997.859375 1355.898438 3004.359375 1355.898438 C 3010.328125 1355.898438 3013.410156 1355.609375 3013.601562 1355.039062 C 3021.589844 1354.539062 3041.429688 1349.019531 3073.121094 1338.5 L 3073.109375 1338.5 C 3046.921875 1340.941406 3026.929688 1342.160156 3013.128906 1342.160156 C 3003.621094 1342.160156 2997.058594 1341.578125 2993.441406 1340.421875 C 2974.980469 1336.269531 2960.390625 1331.808594 2949.660156 1327.058594 C 2946.210938 1326.101562 2938.148438 1321.671875 2925.480469 1313.761719 C 2920.691406 1310.410156 2916.269531 1306.808594 2912.238281 1302.941406 C 2901.75 1291.570312 2894.730469 1281.601562 2891.171875 1273.039062 C 2889.199219 1270.460938 2888.488281 1264.828125 2889.039062 1256.160156 C 2889.871094 1252.929688 2891.570312 1250.058594 2894.128906 1247.539062 C 2899.949219 1243.828125 2907.878906 1241.96875 2917.929688 1241.96875 C 2925.660156 1241.96875 2934.640625 1243.070312 2944.878906 1245.269531 C 2962.628906 1248.679688 2978.691406 1255.300781 2993.050781 1265.140625 L 2976.410156 1251.089844 C 2969.769531 1245.800781 2950.871094 1233.75 2919.710938 1214.960938 C 2895.019531 1200.820312 2871.011719 1189.25 2847.679688 1180.230469 C 2838.03125 1175.691406 2801.71875 1164.769531 2738.730469 1147.488281 C 2694.941406 1136.511719 2669.269531 1131.019531 2661.71875 1131.019531 C 2661.398438 1131.019531 2661.128906 1131.019531 2660.878906 1131.039062 Z M 2240.109375 1182.339844 C 2244.589844 1189.910156 2249.960938 1201.820312 2256.230469 1218.058594 C 2263.738281 1235.828125 2267.648438 1252.429688 2267.960938 1267.859375 C 2268.871094 1279.25 2266.261719 1294.859375 2260.128906 1314.679688 C 2257.058594 1324.621094 2250.378906 1340.28125 2240.109375 1361.660156 C 2229.851562 1340.28125 2223.179688 1324.621094 2220.101562 1314.679688 C 2213.96875 1294.859375 2211.359375 1279.25 2212.269531 1267.859375 C 2212.578125 1252.429688 2216.488281 1235.828125 2224 1218.058594 C 2230.269531 1201.820312 2235.640625 1189.910156 2240.109375 1182.339844 Z M 2139.058594 1174.339844 L 2136.230469 1179.488281 C 2128.71875 1193.371094 2121.46875 1208.558594 2114.460938 1225.050781 C 2097.070312 1267.589844 2085.75 1294.710938 2080.488281 1306.429688 C 2079.921875 1308.351562 2079.671875 1309.839844 2079.738281 1310.890625 C 2079.691406 1311.191406 2079.761719 1312.25 2079.949219 1314.070312 L 2083.398438 1330.839844 L 2087.429688 1347.550781 C 2090.320312 1358.679688 2093.601562 1369.769531 2097.269531 1380.839844 C 2100.949219 1391.890625 2105.011719 1402.929688 2109.46875 1413.921875 L 2116.449219 1430.390625 L 2124.019531 1446.808594 L 2132.171875 1463.179688 L 2132.558594 1462.941406 C 2132.738281 1462.628906 2132.75 1462.019531 2132.609375 1461.109375 C 2130.980469 1453.71875 2129.488281 1446 2128.128906 1437.960938 C 2127.828125 1436.410156 2127.671875 1434.550781 2127.640625 1432.351562 C 2138.609375 1417.371094 2144.539062 1408.960938 2145.449219 1407.109375 C 2148.621094 1402.171875 2151.289062 1397.601562 2153.480469 1393.390625 C 2155.660156 1389.191406 2157.359375 1385.359375 2158.550781 1381.890625 L 2159.980469 1376.980469 C 2160.941406 1370.828125 2161.339844 1367.570312 2161.179688 1367.191406 C 2161.078125 1358.890625 2160.011719 1352.230469 2157.980469 1347.238281 C 2156.679688 1343.78125 2155.089844 1340.359375 2153.21875 1337 C 2143.761719 1322 2138.140625 1312.359375 2136.351562 1308.089844 C 2130.851562 1294.859375 2127.628906 1282.671875 2126.660156 1271.519531 C 2126.128906 1266.449219 2125.828125 1261.480469 2125.769531 1256.621094 C 2125.710938 1251.75 2125.890625 1246.980469 2126.308594 1242.320312 L 2127.121094 1235.390625 L 2128.289062 1228.621094 C 2129.191406 1224.160156 2130.328125 1219.800781 2131.710938 1215.539062 Z M 2341.171875 1174.339844 L 2348.519531 1215.539062 C 2349.910156 1219.800781 2351.050781 1224.160156 2351.949219 1228.621094 L 2353.121094 1235.390625 L 2353.929688 1242.320312 C 2354.351562 1246.980469 2354.53125 1251.75 2354.46875 1256.621094 C 2354.410156 1261.480469 2354.109375 1266.449219 2353.570312 1271.519531 C 2352.609375 1282.671875 2349.378906 1294.859375 2343.878906 1308.089844 C 2342.101562 1312.359375 2336.46875 1322 2327.011719 1337 C 2325.140625 1340.359375 2323.558594 1343.78125 2322.25 1347.238281 C 2320.21875 1352.230469 2319.160156 1358.890625 2319.058594 1367.191406 C 2318.890625 1367.570312 2319.289062 1370.828125 2320.25 1376.980469 L 2321.679688 1381.890625 C 2322.878906 1385.359375 2324.570312 1389.191406 2326.75 1393.390625 C 2328.941406 1397.601562 2331.621094 1402.171875 2334.789062 1407.109375 C 2335.691406 1408.960938 2341.628906 1417.371094 2352.601562 1432.351562 C 2352.570312 1434.550781 2352.398438 1436.410156 2352.101562 1437.960938 C 2350.75 1446 2349.25 1453.71875 2347.628906 1461.109375 C 2347.480469 1462.019531 2347.5 1462.628906 2347.671875 1462.941406 L 2348.058594 1463.179688 L 2356.21875 1446.808594 L 2363.789062 1430.390625 L 2370.769531 1413.921875 C 2375.21875 1402.929688 2379.289062 1391.890625 2382.960938 1380.839844 C 2386.628906 1369.769531 2389.910156 1358.679688 2392.800781 1347.550781 L 2396.828125 1330.839844 L 2400.28125 1314.070312 C 2400.46875 1312.25 2400.539062 1311.191406 2400.488281 1310.890625 C 2400.558594 1309.839844 2400.308594 1308.351562 2399.738281 1306.429688 C 2394.488281 1294.710938 2383.160156 1267.589844 2365.769531 1225.050781 C 2358.769531 1208.558594 2351.511719 1193.371094 2344 1179.488281 Z M 1995.21875 1085.390625 L 1957.449219 1118.890625 C 1907.289062 1162.289062 1857.921875 1200.5 1809.359375 1233.558594 C 1769.320312 1262.640625 1713.039062 1294.5 1640.488281 1329.121094 C 1566.53125 1363.921875 1498.429688 1389.550781 1436.191406 1406.011719 C 1361.378906 1425.890625 1304.988281 1437.128906 1267.03125 1439.738281 C 1268.191406 1442.910156 1275.339844 1446.601562 1288.460938 1450.808594 L 1428.628906 1485.460938 C 1478.238281 1494.148438 1530.960938 1499.210938 1586.800781 1500.628906 C 1548.988281 1476.410156 1530.160156 1457.21875 1530.320312 1443.070312 C 1705.738281 1412.25 1860.699219 1293.019531 1995.21875 1085.390625 Z M 2485.019531 1085.398438 C 2619.539062 1293.03125 2774.5 1412.25 2949.910156 1443.070312 C 2950.070312 1457.21875 2931.25 1476.410156 2893.441406 1500.628906 C 2949.269531 1499.210938 3002 1494.148438 3051.609375 1485.460938 L 3191.769531 1450.808594 C 3204.890625 1446.609375 3212.039062 1442.910156 3213.199219 1439.738281 C 3175.238281 1437.128906 3118.851562 1425.890625 3044.039062 1406.011719 C 2981.800781 1389.550781 2913.699219 1363.921875 2839.75 1329.121094 C 2767.199219 1294.5 2710.910156 1262.640625 2670.878906 1233.558594 C 2622.308594 1200.5 2572.949219 1162.289062 2522.78125 1118.890625 Z M 1980.078125 1038.789062 L 1945.609375 1039.5 C 1852.710938 1043.328125 1751.808594 1062.46875 1642.921875 1096.910156 C 1528.898438 1132.5 1427.078125 1178.929688 1337.460938 1236.191406 C 1201.058594 1326.789062 1101.230469 1416.230469 1037.980469 1504.539062 C 1038.21875 1506.289062 1039.351562 1507.289062 1041.378906 1507.519531 L 1199.550781 1512.890625 C 1255.191406 1511.160156 1299.671875 1503.871094 1332.980469 1491.050781 C 1333.371094 1489.269531 1332.148438 1487.988281 1329.328125 1487.191406 C 1282.988281 1482.679688 1251.558594 1476.539062 1235.039062 1468.75 C 1206.011719 1456.390625 1194.300781 1445.28125 1199.910156 1435.429688 C 1217.929688 1397.851562 1271.910156 1349.269531 1361.871094 1289.691406 C 1449.878906 1236.578125 1532.421875 1194.691406 1609.488281 1164.03125 C 1645.910156 1149.25 1682.359375 1135.960938 1718.851562 1124.140625 L 2004.53125 1039.160156 Z M 2500.160156 1038.789062 L 2475.710938 1039.160156 L 2761.390625 1124.140625 C 2797.871094 1135.960938 2834.320312 1149.25 2870.75 1164.03125 C 2947.808594 1194.691406 3030.351562 1236.578125 3118.371094 1289.691406 C 3208.320312 1349.269531 3262.308594 1397.851562 3280.320312 1435.429688 C 3285.929688 1445.28125 3274.21875 1456.390625 3245.199219 1468.75 C 3228.679688 1476.539062 3197.25 1482.679688 3150.898438 1487.191406 C 3148.078125 1487.988281 3146.859375 1489.269531 3147.25 1491.050781 C 3180.558594 1503.871094 3225.039062 1511.160156 3280.691406 1512.890625 L 3438.851562 1507.519531 C 3440.878906 1507.289062 3442.011719 1506.289062 3442.25 1504.539062 C 3379 1416.230469 3279.179688 1326.789062 3142.769531 1236.191406 C 3053.160156 1178.929688 2951.339844 1132.5 2837.320312 1096.910156 C 2728.429688 1062.46875 2627.53125 1043.328125 2534.621094 1039.5 Z M 2240.121094 1416.058594 L 2282.929688 1482.660156 C 2279.589844 1491.820312 2265.320312 1509.851562 2240.109375 1536.769531 L 2240.121094 1536.769531 L 2240.109375 1536.769531 C 2214.910156 1509.851562 2200.640625 1491.820312 2197.300781 1482.660156 Z M 2240.109375 1085.910156 C 2236.578125 1092.53125 2232.96875 1099.109375 2229.269531 1105.660156 C 2202.148438 1153.730469 2170.800781 1199.828125 2135.21875 1243.929688 C 2148.828125 1253.179688 2159.828125 1264.660156 2168.21875 1278.371094 C 2172.421875 1285.230469 2175.960938 1292.640625 2178.851562 1300.621094 L 2182.699219 1312.988281 C 2184.941406 1321.519531 2186.519531 1330.609375 2187.460938 1340.25 L 2187.441406 1349.46875 L 2186.191406 1358.859375 C 2184.941406 1365.179688 2182.871094 1371.609375 2179.96875 1378.160156 L 2175.011719 1388.058594 C 2167.710938 1401.140625 2156.828125 1415.179688 2142.359375 1430.179688 C 2141.421875 1432.519531 2142.238281 1437.699219 2144.808594 1445.710938 C 2150.25 1459.878906 2156.230469 1473.570312 2162.75 1486.769531 C 2169.261719 1499.980469 2176.308594 1512.691406 2183.890625 1524.929688 L 2195.660156 1542.910156 C 2205.441406 1557.210938 2216.078125 1570.71875 2227.570312 1583.46875 L 2227.160156 1555.101562 L 2227.570312 1583.46875 L 2227.578125 1583.480469 C 2231.648438 1588 2235.828125 1592.410156 2240.121094 1596.730469 C 2244.410156 1592.410156 2248.589844 1587.988281 2252.660156 1583.480469 L 2253.070312 1555.101562 L 2252.660156 1583.46875 C 2264.148438 1570.71875 2274.789062 1557.210938 2284.570312 1542.910156 L 2296.351562 1524.929688 C 2303.929688 1512.691406 2310.980469 1499.980469 2317.488281 1486.769531 C 2324 1473.570312 2329.980469 1459.878906 2335.421875 1445.710938 C 2337.988281 1437.699219 2338.808594 1432.519531 2337.878906 1430.179688 C 2323.410156 1415.179688 2312.519531 1401.140625 2305.21875 1388.058594 L 2300.261719 1378.160156 C 2297.359375 1371.609375 2295.289062 1365.179688 2294.039062 1358.859375 L 2292.789062 1349.46875 L 2292.78125 1340.25 C 2293.710938 1330.609375 2295.300781 1321.519531 2297.539062 1312.988281 L 2301.378906 1300.621094 C 2304.269531 1292.640625 2307.820312 1285.230469 2312.011719 1278.371094 C 2320.398438 1264.660156 2331.410156 1253.179688 2345.019531 1243.929688 C 2309.429688 1199.820312 2278.078125 1153.730469 2250.960938 1105.648438 L 2248.191406 1172.769531 L 2250.949219 1105.648438 C 2247.261719 1099.109375 2243.648438 1092.53125 2240.121094 1085.910156 Z M 2151.769531 1478.109375 L 2147.449219 1487.828125 C 2144.691406 1494.390625 2142.140625 1501.101562 2139.800781 1507.96875 C 2138.359375 1511.210938 2135.339844 1521.859375 2130.730469 1539.929688 C 2127.460938 1554 2124.820312 1569.890625 2122.800781 1587.570312 C 2118.601562 1623.910156 2118.410156 1661.21875 2122.238281 1699.5 C 2127.558594 1685.898438 2135.328125 1671.480469 2145.558594 1656.261719 C 2150.671875 1648.648438 2156.398438 1640.828125 2162.738281 1632.820312 C 2169.070312 1624.800781 2176.03125 1616.578125 2183.589844 1608.160156 L 2195.398438 1595.371094 L 2160.558594 1597.980469 C 2160.210938 1597.988281 2159.878906 1598 2159.550781 1598 C 2156.390625 1598 2154.328125 1597.441406 2153.378906 1596.328125 C 2152.980469 1595.511719 2152.621094 1593.839844 2152.289062 1591.320312 C 2152.078125 1591.121094 2151.640625 1585.421875 2150.980469 1574.21875 C 2150.480469 1564.058594 2150.101562 1550.5 2149.828125 1533.519531 Z M 2328.46875 1478.109375 L 2330.410156 1533.519531 C 2330.140625 1550.5 2329.75 1564.058594 2329.261719 1574.21875 C 2328.589844 1585.421875 2328.148438 1591.121094 2327.949219 1591.320312 C 2327.609375 1593.839844 2327.25 1595.511719 2326.859375 1596.328125 C 2325.898438 1597.441406 2323.839844 1598 2320.679688 1598 C 2320.359375 1598 2320.019531 1597.988281 2319.679688 1597.980469 L 2284.828125 1595.371094 L 2296.640625 1608.160156 C 2304.210938 1616.578125 2311.160156 1624.800781 2317.5 1632.820312 C 2323.839844 1640.828125 2329.558594 1648.648438 2334.679688 1656.261719 C 2344.898438 1671.480469 2352.671875 1685.898438 2357.988281 1699.5 C 2361.820312 1661.21875 2361.628906 1623.910156 2357.429688 1587.570312 C 2355.421875 1569.890625 2352.769531 1554 2349.5 1539.929688 C 2344.890625 1521.859375 2341.871094 1511.210938 2340.429688 1507.96875 C 2338.101562 1501.101562 2335.550781 1494.390625 2332.78125 1487.828125 Z M 2240.121094 1607.558594 L 2234.589844 1613.890625 L 2224.128906 1625.871094 C 2168.441406 1690.839844 2134.640625 1740.03125 2122.71875 1773.460938 C 2122.71875 1778.859375 2123.199219 1784.730469 2124.128906 1791.078125 C 2124.019531 1793.660156 2126.449219 1804.230469 2131.441406 1822.789062 C 2136.078125 1838.289062 2142.570312 1855.679688 2150.898438 1874.941406 C 2154.308594 1882.210938 2163 1897.960938 2176.988281 1922.210938 C 2182.410156 1931.191406 2187.589844 1939.179688 2192.511719 1946.148438 C 2202.351562 1960.089844 2211.191406 1969.988281 2219.039062 1975.859375 C 2219.46875 1974.980469 2219.269531 1973.71875 2218.429688 1972.089844 C 2215.578125 1967.738281 2209.648438 1955.238281 2200.640625 1934.589844 C 2197.308594 1925.261719 2194.230469 1914.800781 2191.441406 1903.199219 C 2185.421875 1873.96875 2183.148438 1850.421875 2184.628906 1832.539062 C 2184.488281 1831 2185.390625 1823.039062 2187.328125 1808.679688 L 2190.539062 1792.621094 C 2193.039062 1782.160156 2196.25 1772.148438 2200.179688 1762.601562 L 2206.609375 1748.628906 C 2211.25 1739.550781 2216.609375 1730.929688 2222.699219 1722.769531 C 2227.960938 1715.691406 2233.769531 1708.96875 2240.109375 1702.589844 L 2240.121094 1702.589844 C 2246.46875 1708.96875 2252.269531 1715.691406 2257.539062 1722.769531 C 2263.621094 1730.929688 2268.980469 1739.550781 2273.628906 1748.628906 L 2280.058594 1762.601562 C 2283.980469 1772.148438 2287.199219 1782.160156 2289.699219 1792.621094 L 2292.898438 1808.679688 C 2294.839844 1823.039062 2295.738281 1831 2295.601562 1832.539062 C 2297.089844 1850.421875 2294.808594 1873.96875 2288.789062 1903.199219 C 2286 1914.800781 2282.929688 1925.261719 2279.589844 1934.589844 C 2270.589844 1955.238281 2264.660156 1967.738281 2261.808594 1972.089844 C 2260.96875 1973.71875 2260.761719 1974.980469 2261.199219 1975.859375 C 2269.039062 1969.988281 2277.878906 1960.089844 2287.730469 1946.148438 C 2292.648438 1939.179688 2297.820312 1931.191406 2303.238281 1922.210938 C 2317.230469 1897.960938 2325.929688 1882.210938 2329.328125 1874.941406 C 2337.660156 1855.679688 2344.148438 1838.289062 2348.789062 1822.789062 C 2353.78125 1804.230469 2356.21875 1793.660156 2356.109375 1791.078125 C 2357.039062 1784.730469 2357.511719 1778.859375 2357.519531 1773.460938 C 2345.589844 1740.03125 2311.789062 1690.839844 2256.109375 1625.871094 L 2245.640625 1613.890625 Z M 2121.519531 1872.351562 L 2121.210938 1872.429688 C 2120.480469 1873.230469 2120.210938 1874.761719 2120.390625 1877.03125 C 2121.070312 1894.050781 2122.089844 1909.820312 2123.46875 1924.328125 C 2124.859375 1939.261719 2126.648438 1953.769531 2128.839844 1967.839844 C 2131.03125 1981.929688 2133.609375 1995.578125 2136.589844 2008.808594 L 2141.359375 2028.328125 C 2144.730469 2041.128906 2148.5 2053.511719 2152.671875 2065.460938 C 2158.078125 2081.019531 2164.78125 2095.878906 2172.78125 2110.050781 C 2172.449219 2103.140625 2173.128906 2096.511719 2174.828125 2090.171875 C 2175.539062 2085.261719 2179.261719 2077.78125 2186.011719 2067.75 C 2194.539062 2060.988281 2201.71875 2057.621094 2207.519531 2057.621094 C 2212.089844 2057.621094 2215.820312 2059.710938 2218.691406 2063.910156 C 2219.800781 2066.601562 2220.320312 2069.621094 2220.238281 2072.941406 C 2220.511719 2075.261719 2219.480469 2079.910156 2217.148438 2086.898438 C 2216.46875 2091.101562 2207.710938 2107.109375 2190.851562 2134.921875 C 2190.160156 2136.300781 2189.960938 2137.738281 2190.230469 2139.230469 C 2204.410156 2173.898438 2215.558594 2197.769531 2223.679688 2210.820312 C 2224.070312 2211.5 2224.449219 2212.171875 2224.828125 2212.839844 L 2230.820312 2016.070312 L 2224.828125 2212.851562 C 2229.710938 2221.449219 2234.800781 2229.859375 2240.121094 2238.070312 C 2245.429688 2229.859375 2250.53125 2221.449219 2255.398438 2212.851562 L 2249.421875 2016.070312 L 2255.398438 2212.851562 C 2255.789062 2212.179688 2256.171875 2211.5 2256.550781 2210.820312 C 2264.679688 2197.769531 2275.820312 2173.898438 2290 2139.230469 C 2290.28125 2137.738281 2290.070312 2136.300781 2289.390625 2134.921875 C 2272.53125 2107.109375 2263.761719 2091.101562 2263.089844 2086.898438 C 2260.75 2079.910156 2259.71875 2075.261719 2260 2072.941406 C 2259.921875 2069.621094 2260.429688 2066.601562 2261.539062 2063.910156 C 2264.421875 2059.710938 2268.140625 2057.621094 2272.71875 2057.621094 C 2278.519531 2057.621094 2285.691406 2060.988281 2294.230469 2067.75 C 2300.96875 2077.78125 2304.699219 2085.261719 2305.398438 2090.171875 C 2307.109375 2096.511719 2307.789062 2103.140625 2307.449219 2110.050781 C 2315.449219 2095.878906 2322.160156 2081.019531 2327.570312 2065.460938 C 2331.730469 2053.511719 2335.5 2041.128906 2338.878906 2028.328125 L 2343.640625 2008.808594 C 2346.621094 1995.578125 2349.210938 1981.929688 2351.390625 1967.839844 C 2353.578125 1953.769531 2355.371094 1939.261719 2356.769531 1924.328125 C 2358.140625 1909.820312 2359.160156 1894.050781 2359.839844 1877.03125 C 2360.019531 1874.761719 2359.75 1873.230469 2359.019531 1872.429688 L 2358.71875 1872.351562 L 2357.519531 1873.011719 C 2344.929688 1899.101562 2333.539062 1921.011719 2323.339844 1938.75 C 2313.140625 1956.5 2304.140625 1970.070312 2296.328125 1979.460938 C 2278.359375 2000.300781 2259.621094 2012.238281 2240.109375 2015.289062 C 2220.609375 2012.238281 2201.878906 2000.300781 2183.910156 1979.460938 C 2176.101562 1970.070312 2167.089844 1956.5 2156.890625 1938.75 C 2146.699219 1921.011719 2135.300781 1899.101562 2122.710938 1873.011719 Z M 2331.808594 2128.351562 L 2317.789062 2204.519531 C 2315.710938 2214 2313.160156 2224.011719 2310.140625 2234.550781 C 2307.121094 2245.101562 2303.640625 2256.179688 2299.679688 2267.78125 C 2298.289062 2272.921875 2291.308594 2291.53125 2278.730469 2323.609375 C 2267.949219 2346.820312 2258.320312 2363.179688 2249.839844 2372.679688 C 2247.441406 2375.410156 2244.199219 2378.308594 2240.109375 2381.386719 C 2236.03125 2378.308594 2232.789062 2375.410156 2230.390625 2372.679688 C 2221.910156 2363.179688 2212.28125 2346.820312 2201.5 2323.609375 C 2188.929688 2291.53125 2181.941406 2272.921875 2180.550781 2267.78125 C 2176.601562 2256.179688 2173.109375 2245.101562 2170.089844 2234.550781 C 2167.070312 2224.011719 2164.53125 2214 2162.449219 2204.519531 L 2148.429688 2128.351562 L 2142.640625 2138.050781 C 2128.140625 2164.449219 2121.078125 2195.039062 2121.46875 2229.828125 C 2123.070312 2246.878906 2124.859375 2258.5 2126.828125 2264.691406 C 2134.328125 2288.949219 2142.261719 2312.949219 2150.628906 2336.691406 C 2162.191406 2372.730469 2181.699219 2411.628906 2209.171875 2453.402344 C 2212.96875 2458.613281 2216.671875 2463.601562 2220.289062 2468.378906 C 2220.289062 2468.382812 2220.289062 2468.382812 2220.289062 2468.386719 C 2227.21875 2477.519531 2233.828125 2485.867188 2240.121094 2493.417969 C 2246.410156 2485.863281 2253.011719 2477.519531 2259.941406 2468.382812 L 2259.941406 2468.378906 C 2263.558594 2463.601562 2267.269531 2458.613281 2271.058594 2453.402344 C 2298.53125 2411.628906 2318.039062 2372.730469 2329.601562 2336.691406 C 2337.96875 2312.949219 2345.910156 2288.949219 2353.398438 2264.691406 C 2355.371094 2258.5 2357.160156 2246.878906 2358.769531 2229.828125 C 2359.148438 2195.039062 2352.089844 2164.449219 2337.589844 2138.050781 Z M 2181.46875 2453.320312 C 2181.371094 2453.320312 2181.289062 2453.34375 2181.230469 2453.390625 L 2180.648438 2453.515625 C 2180.628906 2453.511719 2180.609375 2453.511719 2180.578125 2453.511719 C 2178.128906 2453.511719 2172.800781 2466.84375 2164.578125 2493.507812 C 2158.628906 2512.644531 2154.429688 2529.816406 2151.96875 2545.011719 C 2150.128906 2557.292969 2149.171875 2564.753906 2149.101562 2567.386719 C 2148.648438 2572.46875 2148.320312 2577.625 2148.121094 2582.855469 C 2147.488281 2599.390625 2148.019531 2614.910156 2149.699219 2629.417969 C 2152.980469 2651.132812 2158.621094 2672.429688 2166.628906 2693.308594 C 2171.039062 2704.394531 2175.71875 2714.328125 2180.640625 2723.117188 C 2203.070312 2755.886719 2215 2774.972656 2216.449219 2780.375 C 2220.710938 2789.621094 2224.25 2803.769531 2227.050781 2822.828125 C 2230.710938 2790.4375 2231.519531 2767.789062 2229.480469 2754.886719 C 2227.039062 2741.394531 2224.679688 2731 2222.410156 2723.699219 L 2194.261719 2637.832031 C 2188.488281 2614.003906 2185.328125 2594.238281 2184.78125 2578.53125 C 2183.449219 2545.511719 2190.601562 2511.765625 2206.21875 2477.300781 C 2191.558594 2461.316406 2183.308594 2453.320312 2181.46875 2453.320312 Z M 2298.761719 2453.320312 C 2296.929688 2453.320312 2288.679688 2461.316406 2274.011719 2477.300781 C 2289.640625 2511.765625 2296.789062 2545.511719 2295.449219 2578.53125 C 2294.910156 2594.238281 2291.75 2614.003906 2285.96875 2637.832031 L 2257.820312 2723.699219 C 2255.558594 2731 2253.199219 2741.394531 2250.75 2754.886719 C 2248.71875 2767.789062 2249.53125 2790.4375 2253.179688 2822.828125 C 2255.988281 2803.769531 2259.519531 2789.621094 2263.789062 2780.375 C 2265.230469 2774.972656 2277.160156 2755.886719 2299.601562 2723.117188 C 2304.519531 2714.328125 2309.191406 2704.394531 2313.609375 2693.308594 C 2321.609375 2672.429688 2327.25 2651.132812 2330.539062 2629.417969 C 2332.21875 2614.910156 2332.75 2599.390625 2332.109375 2582.855469 C 2331.910156 2577.625 2331.578125 2572.46875 2331.128906 2567.386719 C 2331.058594 2564.753906 2330.109375 2557.292969 2328.261719 2545.011719 C 2325.808594 2529.816406 2321.609375 2512.644531 2315.648438 2493.507812 C 2307.441406 2466.84375 2302.109375 2453.511719 2299.648438 2453.511719 C 2299.628906 2453.511719 2299.609375 2453.511719 2299.578125 2453.515625 L 2299 2453.390625 C 2298.941406 2453.34375 2298.859375 2453.320312 2298.761719 2453.320312 Z M 2144.160156 2674.933594 L 2142.480469 2681.902344 C 2141.679688 2684.136719 2140.730469 2691.375 2139.609375 2703.617188 C 2139.328125 2708.578125 2139.289062 2713.625 2139.480469 2718.765625 C 2139.679688 2728.785156 2141.230469 2739.679688 2144.121094 2751.453125 C 2147.550781 2764.148438 2150.480469 2773.199219 2152.910156 2778.597656 C 2170.609375 2815.921875 2182.609375 2842.894531 2188.910156 2859.527344 C 2192.328125 2867.976562 2194.769531 2877.101562 2196.230469 2886.90625 C 2198.878906 2901.152344 2200.640625 2918.039062 2201.53125 2937.558594 C 2202.421875 2957.074219 2202.429688 2979.230469 2201.558594 3004.019531 L 2202.261719 3008.105469 C 2207.351562 3024.953125 2212.171875 3037.472656 2216.71875 3045.664062 C 2228.339844 3069.550781 2235.980469 3082.867188 2239.648438 3085.613281 C 2239.648438 3085.617188 2239.648438 3085.617188 2239.648438 3085.621094 C 2239.820312 3085.738281 2239.96875 3085.839844 2240.121094 3085.917969 C 2240.269531 3085.839844 2240.421875 3085.738281 2240.578125 3085.617188 L 2240.578125 3085.613281 C 2244.25 3082.871094 2251.890625 3069.554688 2263.511719 3045.664062 C 2268.058594 3037.472656 2272.878906 3024.953125 2277.96875 3008.105469 L 2278.679688 3004.019531 C 2277.808594 2979.230469 2277.820312 2957.074219 2278.699219 2937.558594 C 2279.589844 2918.039062 2281.359375 2901.152344 2284 2886.90625 C 2285.460938 2877.101562 2287.898438 2867.976562 2291.328125 2859.527344 C 2297.628906 2842.894531 2309.628906 2815.921875 2327.328125 2778.597656 C 2329.761719 2773.199219 2332.691406 2764.148438 2336.121094 2751.453125 C 2339.011719 2739.679688 2340.550781 2728.785156 2340.75 2718.765625 C 2340.949219 2713.625 2340.910156 2708.578125 2340.628906 2703.617188 C 2339.511719 2691.375 2338.550781 2684.136719 2337.75 2681.902344 L 2336.078125 2674.933594 L 2324.140625 2719.886719 C 2324.769531 2723.230469 2323.800781 2729.339844 2321.21875 2738.210938 C 2315.898438 2754.871094 2309.890625 2771.035156 2303.191406 2786.699219 C 2298.929688 2796.058594 2278.839844 2831.761719 2242.941406 2893.8125 C 2241.949219 2895.707031 2241.011719 2897.550781 2240.109375 2899.34375 C 2239.21875 2897.550781 2238.289062 2895.707031 2237.300781 2893.8125 C 2201.390625 2831.761719 2181.308594 2796.058594 2177.039062 2786.699219 C 2170.339844 2771.035156 2164.339844 2754.871094 2159.011719 2738.210938 C 2156.429688 2729.339844 2155.460938 2723.230469 2156.089844 2719.886719 Z M 2144.160156 2674.933594 "/>
</svg>
